<svg width="21" height="29" viewBox="0 0 21 29" fill="none" xmlns="http://www.w3.org/2000/svg">
<path d="M13.8479 1.05859L1 16.9375H8.5L6.65371 27.0877C6.6502 27.1076 6.65109 27.1281 6.65634 27.1476C6.66158 27.1671 6.67105 27.1853 6.68407 27.2007C6.69708 27.2162 6.71334 27.2286 6.73168 27.2372C6.75002 27.2457 6.77001 27.2501 6.79023 27.25C6.81175 27.25 6.83297 27.2449 6.85219 27.2353C6.87142 27.2256 6.88812 27.2116 6.90098 27.1943L19.75 11.3125H12.25L14.1051 1.16113C14.1076 1.14091 14.1057 1.12039 14.0997 1.10093C14.0936 1.08147 14.0835 1.06352 14.07 1.04828C14.0565 1.03304 14.0398 1.02085 14.0212 1.01252C14.0026 1.0042 13.9825 0.999931 13.9621 1C13.9398 1.00009 13.9178 1.00544 13.898 1.01562C13.8781 1.0258 13.8609 1.04053 13.8479 1.05859Z" stroke="#FFCB00" stroke-width="1.875" stroke-linecap="round" stroke-linejoin="round"/>
</svg>
