<svg width="27" height="27" viewBox="0 0 27 27" fill="none" xmlns="http://www.w3.org/2000/svg">
<path d="M8.5 9.75V17.25M13.5 9.75V17.25M8.5 13.5H14.75C15.915 13.5 16.4975 13.5 16.9563 13.31C17.2598 13.1844 17.5356 13.0001 17.7678 12.7678C18.0001 12.5356 18.1844 12.2598 18.31 11.9563C18.5 11.4975 18.5 10.915 18.5 9.75" stroke="#FFCB00" stroke-width="1.875" stroke-linecap="round"/>
<path d="M26 13.5C26 20.4037 20.4037 26 13.5 26C6.59625 26 1 20.4037 1 13.5C1 6.59625 6.59625 1 13.5 1C20.4037 1 26 6.59625 26 13.5Z" stroke="#FFCB00" stroke-width="1.875"/>
</svg>
