<svg width="21" height="24" viewBox="0 0 21 24" fill="none" xmlns="http://www.w3.org/2000/svg">
<path d="M0 3C0 2.20435 0.31607 1.44129 0.87868 0.87868C1.44129 0.31607 2.20435 0 3 0C3.79565 0 4.55871 0.31607 5.12132 0.87868C5.68393 1.44129 6 2.20435 6 3V4.5H8.3775C8.53211 4.06051 8.81933 3.67985 9.19951 3.41056C9.5797 3.14128 10.0341 2.99665 10.5 2.99665C10.9659 2.99665 11.4203 3.14128 11.8005 3.41056C12.1807 3.67985 12.4679 4.06051 12.6225 4.5H15V3C15 2.20435 15.3161 1.44129 15.8787 0.87868C16.4413 0.31607 17.2043 0 18 0C18.7957 0 19.5587 0.31607 20.1213 0.87868C20.6839 1.44129 21 2.20435 21 3V7.5C21 8.29565 20.6839 9.05871 20.1213 9.62132C19.5587 10.1839 18.7957 10.5 18 10.5C17.2043 10.5 16.4413 10.1839 15.8787 9.62132C15.3161 9.05871 15 8.29565 15 7.5V6H12.6225C12.5099 6.31629 12.3283 6.60355 12.0909 6.84095C11.8536 7.07834 11.5663 7.25992 11.25 7.3725V16.6275C11.889 16.854 12.396 17.361 12.6225 18H15V16.5C15 15.7044 15.3161 14.9413 15.8787 14.3787C16.4413 13.8161 17.2043 13.5 18 13.5C18.7957 13.5 19.5587 13.8161 20.1213 14.3787C20.6839 14.9413 21 15.7044 21 16.5V21C21 21.7957 20.6839 22.5587 20.1213 23.1213C19.5587 23.6839 18.7957 24 18 24C17.2043 24 16.4413 23.6839 15.8787 23.1213C15.3161 22.5587 15 21.7957 15 21V19.5H12.6225C12.4679 19.9395 12.1807 20.3202 11.8005 20.5894C11.4203 20.8587 10.9659 21.0033 10.5 21.0033C10.0341 21.0033 9.5797 20.8587 9.19951 20.5894C8.81933 20.3202 8.53211 19.9395 8.3775 19.5H6V21C6 21.7957 5.68393 22.5587 5.12132 23.1213C4.55871 23.6839 3.79565 24 3 24C2.20435 24 1.44129 23.6839 0.87868 23.1213C0.31607 22.5587 0 21.7957 0 21V16.5C0 15.7044 0.31607 14.9413 0.87868 14.3787C1.44129 13.8161 2.20435 13.5 3 13.5C3.79565 13.5 4.55871 13.8161 5.12132 14.3787C5.68393 14.9413 6 15.7044 6 16.5V18H8.3775C8.604 17.361 9.111 16.854 9.75 16.6275V7.3725C9.4335 7.26029 9.14604 7.07885 8.9086 6.8414C8.67115 6.60396 8.48971 6.3165 8.3775 6H6V7.5C6 8.29565 5.68393 9.05871 5.12132 9.62132C4.55871 10.1839 3.79565 10.5 3 10.5C2.20435 10.5 1.44129 10.1839 0.87868 9.62132C0.31607 9.05871 0 8.29565 0 7.5V3ZM3 1.5C2.60218 1.5 2.22064 1.65804 1.93934 1.93934C1.65804 2.22064 1.5 2.60218 1.5 3V7.5C1.5 7.89782 1.65804 8.27936 1.93934 8.56066C2.22064 8.84196 2.60218 9 3 9C3.39782 9 3.77936 8.84196 4.06066 8.56066C4.34196 8.27936 4.5 7.89782 4.5 7.5V3C4.5 2.60218 4.34196 2.22064 4.06066 1.93934C3.77936 1.65804 3.39782 1.5 3 1.5ZM18 1.5C17.6022 1.5 17.2206 1.65804 16.9393 1.93934C16.658 2.22064 16.5 2.60218 16.5 3V7.5C16.5 7.89782 16.658 8.27936 16.9393 8.56066C17.2206 8.84196 17.6022 9 18 9C18.3978 9 18.7794 8.84196 19.0607 8.56066C19.342 8.27936 19.5 7.89782 19.5 7.5V3C19.5 2.60218 19.342 2.22064 19.0607 1.93934C18.7794 1.65804 18.3978 1.5 18 1.5ZM3 15C2.60218 15 2.22064 15.158 1.93934 15.4393C1.65804 15.7206 1.5 16.1022 1.5 16.5V21C1.5 21.3978 1.65804 21.7794 1.93934 22.0607C2.22064 22.342 2.60218 22.5 3 22.5C3.39782 22.5 3.77936 22.342 4.06066 22.0607C4.34196 21.7794 4.5 21.3978 4.5 21V16.5C4.5 16.1022 4.34196 15.7206 4.06066 15.4393C3.77936 15.158 3.39782 15 3 15ZM16.5 16.5V21C16.5 21.3978 16.658 21.7794 16.9393 22.0607C17.2206 22.342 17.6022 22.5 18 22.5C18.3978 22.5 18.7794 22.342 19.0607 22.0607C19.342 21.7794 19.5 21.3978 19.5 21V16.5C19.5 16.1022 19.342 15.7206 19.0607 15.4393C18.7794 15.158 18.3978 15 18 15C17.6022 15 17.2206 15.158 16.9393 15.4393C16.658 15.7206 16.5 16.1022 16.5 16.5Z" fill="#FFCB00"/>
</svg>
