<svg width="30" height="23" viewBox="0 0 30 23" fill="none" xmlns="http://www.w3.org/2000/svg">
<path d="M29.0625 8.4375C28.8139 8.4375 28.5754 8.53627 28.3996 8.71209C28.2238 8.8879 28.125 9.12636 28.125 9.375V12.1875H26.25V10.3125C26.25 9.81522 26.0525 9.33831 25.7008 8.98668C25.3492 8.63504 24.8723 8.4375 24.375 8.4375H22.8879L18.75 4.29961C18.5765 4.12474 18.37 3.9861 18.1425 3.89175C17.9149 3.7974 17.6709 3.74921 17.4246 3.75H15V1.875H17.8125C18.0611 1.875 18.2996 1.77623 18.4754 1.60041C18.6512 1.4246 18.75 1.18614 18.75 0.9375C18.75 0.68886 18.6512 0.450403 18.4754 0.274588C18.2996 0.0987722 18.0611 0 17.8125 0H10.3125C10.0639 0 9.8254 0.0987722 9.64959 0.274588C9.47377 0.450403 9.375 0.68886 9.375 0.9375C9.375 1.18614 9.47377 1.4246 9.64959 1.60041C9.8254 1.77623 10.0639 1.875 10.3125 1.875H13.125V3.75H5.625C5.12772 3.75 4.65081 3.94754 4.29917 4.29918C3.94754 4.65081 3.75 5.12772 3.75 5.625V12.1875H1.875V9.375C1.875 9.12636 1.77623 8.8879 1.60041 8.71209C1.4246 8.53627 1.18614 8.4375 0.9375 8.4375C0.68886 8.4375 0.450403 8.53627 0.274587 8.71209C0.0987721 8.8879 0 9.12636 0 9.375L0 16.875C0 17.1236 0.0987721 17.3621 0.274587 17.5379C0.450403 17.7137 0.68886 17.8125 0.9375 17.8125C1.18614 17.8125 1.4246 17.7137 1.60041 17.5379C1.77623 17.3621 1.875 17.1236 1.875 16.875V14.0625H3.75V16.4871C3.74921 16.7334 3.7974 16.9774 3.89175 17.205C3.9861 17.4325 4.12474 17.639 4.29961 17.8125L8.4375 21.9504C8.61098 22.1253 8.81749 22.2639 9.04502 22.3582C9.27255 22.4526 9.51657 22.5008 9.76289 22.5H17.4246C17.6709 22.5008 17.9149 22.4526 18.1425 22.3582C18.37 22.2639 18.5765 22.1253 18.75 21.9504L22.8879 17.8125H24.375C24.8723 17.8125 25.3492 17.615 25.7008 17.2633C26.0525 16.9117 26.25 16.4348 26.25 15.9375V14.0625H28.125V16.875C28.125 17.1236 28.2238 17.3621 28.3996 17.5379C28.5754 17.7137 28.8139 17.8125 29.0625 17.8125C29.3111 17.8125 29.5496 17.7137 29.7254 17.5379C29.9012 17.3621 30 17.1236 30 16.875V9.375C30 9.12636 29.9012 8.8879 29.7254 8.71209C29.5496 8.53627 29.3111 8.4375 29.0625 8.4375ZM24.375 15.9375H22.8879C22.6416 15.9367 22.3976 15.9849 22.17 16.0793C21.9425 16.1736 21.736 16.3122 21.5625 16.4871L17.4246 20.625H9.76289L5.625 16.4871V5.625H17.4246L21.5625 9.76289C21.736 9.93776 21.9425 10.0764 22.17 10.1708C22.3976 10.2651 22.6416 10.3133 22.8879 10.3125H24.375V15.9375Z" fill="#FFCB00"/>
</svg>
