<svg width="29" height="36" viewBox="0 0 29 36" fill="none" xmlns="http://www.w3.org/2000/svg">
<g clip-path="url(#clip0_37_177)">
<path d="M25.7321 12.4098C25.7321 16.0729 21.4014 22.6755 18.1575 26.7382C17.3557 27.7502 16.6278 28.59 16.0476 29.2022C15.875 29.3847 15.6646 29.5304 15.4296 29.6303C15.1948 29.7301 14.9408 29.7817 14.684 29.7817C14.4271 29.7817 14.1731 29.7301 13.9383 29.6303C13.7035 29.5304 13.493 29.3847 13.3205 29.2022C12.735 28.59 12.0018 27.74 11.2105 26.7382C7.95071 22.6602 3.61484 16.0577 3.61484 12.4098C3.52778 10.9653 3.74925 9.51897 4.26564 8.15946C4.78204 6.79997 5.58249 5.55596 6.61793 4.50373C7.65336 3.45149 8.90195 2.61319 10.2871 2.04024C11.6723 1.46729 13.1649 1.17175 14.6734 1.17175C16.182 1.17175 17.6745 1.46729 19.0597 2.04024C20.445 2.61319 21.6935 3.45149 22.7289 4.50373C23.7643 5.55596 24.5649 6.79997 25.0812 8.15946C25.5976 9.51897 25.8191 10.9653 25.7321 12.4098Z" stroke="#333333" stroke-width="2" stroke-linecap="round" stroke-linejoin="round"/>
<path d="M14.67 19.7625C18.9145 19.7625 22.3553 16.462 22.3553 12.3908C22.3553 8.31956 18.9145 5.01917 14.67 5.01917C10.4255 5.01917 6.98462 8.31956 6.98462 12.3908C6.98462 16.462 10.4255 19.7625 14.67 19.7625Z" stroke="#333333" stroke-width="2" stroke-linecap="round" stroke-linejoin="round"/>
<path d="M28.1583 30.3393C28.1583 32.3984 22.1187 34.0732 14.6706 34.0732C7.22262 34.0732 1.18298 32.3984 1.18298 30.3393C1.18298 28.6038 5.42919 27.1517 11.2051 26.7217C12.0016 27.7336 12.7348 28.5735 13.315 29.1857C13.4876 29.3681 13.698 29.5139 13.9329 29.6137C14.1677 29.7136 14.4217 29.7652 14.6785 29.7652C14.9354 29.7652 15.1894 29.7136 15.4243 29.6137C15.6591 29.5139 15.8695 29.3681 16.0421 29.1857C16.6328 28.5735 17.3608 27.7234 18.152 26.7217C23.9121 27.1517 28.1583 28.5987 28.1583 30.3393Z" stroke="#333333" stroke-width="2" stroke-linecap="round" stroke-linejoin="round"/>
<path d="M10.3312 11.3037H11.1596C11.3104 11.3037 11.4597 11.3325 11.5987 11.3884C11.7377 11.4444 11.8637 11.5263 11.9693 11.6295C12.075 11.7327 12.1581 11.8551 12.2138 11.9894C12.2696 12.1238 12.2968 12.2675 12.294 12.4121C12.294 12.7011 12.1747 12.9784 11.9621 13.1833C11.7495 13.3881 11.461 13.5039 11.1596 13.5052H10.3312" stroke="#333333" stroke-width="2" stroke-linecap="round" stroke-linejoin="round"/>
<path d="M18.9991 13.4826H18.1708C17.873 13.4813 17.5877 13.3683 17.3757 13.1678C17.1637 12.9673 17.0419 12.6952 17.0364 12.4096C17.0377 12.1215 17.1578 11.8455 17.3702 11.6417C17.5827 11.4379 17.8704 11.3229 18.1708 11.3215H18.9991" stroke="#333333" stroke-width="2" stroke-linecap="round" stroke-linejoin="round"/>
<path d="M17.0469 12.3916H12.2928" stroke="#333333" stroke-width="2" stroke-linecap="round" stroke-linejoin="round"/>
</g>
<defs>
<clipPath id="clip0_37_177">
<rect width="28.913" height="35" fill="white" transform="translate(6.10352e-05 0.517822)"/>
</clipPath>
</defs>
</svg>
