<svg width="24" height="25" viewBox="0 0 24 25" fill="none" xmlns="http://www.w3.org/2000/svg">
<path d="M13.234 0C14.584 0.003697 15.2691 0.011091 15.8607 0.0283436L16.0935 0.0369699C16.3623 0.0468286 16.6275 0.0591519 16.9479 0.0739399C18.2247 0.135556 19.0958 0.342588 19.8602 0.646974C20.6522 0.959987 21.3194 1.38391 21.9866 2.06785C22.5968 2.68389 23.0689 3.42907 23.3701 4.25154C23.6665 5.03654 23.8681 5.93121 23.9281 7.24365C23.9425 7.57145 23.9545 7.84379 23.9641 8.12107L23.9713 8.36014C23.9893 8.96645 23.9965 9.67011 23.9989 11.0565L24.0001 11.9758V13.5902C24.0031 14.489 23.9939 15.3879 23.9725 16.2865L23.9653 16.5256C23.9557 16.8028 23.9437 17.0752 23.9293 17.403C23.8693 18.7154 23.6653 19.6089 23.3701 20.3951C23.0698 21.218 22.5975 21.9634 21.9866 22.5788C21.3865 23.2052 20.661 23.69 19.8602 23.9997C19.0958 24.3041 18.2247 24.5111 16.9479 24.5727C16.6632 24.5865 16.3784 24.5988 16.0935 24.6097L15.8607 24.6171C15.2691 24.6343 14.584 24.6429 13.234 24.6454L12.3388 24.6466H10.768C9.89237 24.6497 9.01671 24.6403 8.1413 24.6183L7.90851 24.6109C7.62365 24.5998 7.33885 24.5871 7.05413 24.5727C5.77736 24.5111 4.90618 24.3041 4.1406 23.9997C3.33982 23.6908 2.61449 23.2059 2.01544 22.5788C1.40471 21.963 0.93214 21.2178 0.630678 20.3951C0.334285 19.6101 0.132689 18.7154 0.0726906 17.403C0.0593215 17.1106 0.0473217 16.8181 0.0366915 16.5256L0.0306918 16.2865C0.00857877 15.3879 -0.00142207 14.489 0.000692385 13.5902V11.0565C-0.0026567 10.1576 0.00614403 9.25875 0.0270919 8.36014L0.0354916 8.12107C0.0450914 7.84379 0.0570911 7.57145 0.0714907 7.24365C0.131489 5.93121 0.333084 5.03777 0.629478 4.25154C0.930807 3.42823 1.40432 2.68282 2.01665 2.06785C2.61554 1.44118 3.34039 0.956274 4.1406 0.646974C4.90618 0.342588 5.77616 0.135556 7.05413 0.0739399C7.37332 0.0591519 7.63971 0.0468286 7.90851 0.0369699L8.1413 0.0295759C9.01631 0.00768076 9.89158 -0.00176802 10.7668 0.00123224L13.234 0ZM12.0004 6.16166C10.4092 6.16166 8.88306 6.81083 7.75787 7.96637C6.63268 9.1219 6.00055 10.6891 6.00055 12.3233C6.00055 13.9575 6.63268 15.5247 7.75787 16.6803C8.88306 17.8358 10.4092 18.485 12.0004 18.485C13.5917 18.485 15.1178 17.8358 16.243 16.6803C17.3681 15.5247 18.0003 13.9575 18.0003 12.3233C18.0003 10.6891 17.3681 9.1219 16.243 7.96637C15.1178 6.81083 13.5917 6.16166 12.0004 6.16166ZM12.0004 8.62632C12.4732 8.62624 12.9413 8.72179 13.3781 8.90751C13.8149 9.09322 14.2118 9.36547 14.5461 9.70871C14.8805 10.052 15.1457 10.4595 15.3267 10.908C15.5077 11.3565 15.6008 11.8372 15.6009 12.3227C15.601 12.8082 15.508 13.289 15.3271 13.7375C15.1463 14.1861 14.8812 14.5937 14.547 14.9371C14.2127 15.2804 13.8159 15.5528 13.3792 15.7387C12.9425 15.9245 12.4744 16.0202 12.0016 16.0203C11.0469 16.0203 10.1312 15.6308 9.45609 14.9375C8.78097 14.2442 8.4017 13.3038 8.4017 12.3233C8.4017 11.3428 8.78097 10.4025 9.45609 9.70915C10.1312 9.01583 11.0469 8.62632 12.0016 8.62632M18.3015 4.31316C17.9036 4.31316 17.5221 4.47546 17.2408 4.76434C16.9595 5.05322 16.8015 5.44503 16.8015 5.85358C16.8015 6.26212 16.9595 6.65393 17.2408 6.94281C17.5221 7.2317 17.9036 7.39399 18.3015 7.39399C18.6993 7.39399 19.0808 7.2317 19.3621 6.94281C19.6434 6.65393 19.8014 6.26212 19.8014 5.85358C19.8014 5.44503 19.6434 5.05322 19.3621 4.76434C19.0808 4.47546 18.6993 4.31316 18.3015 4.31316Z" fill="#333333"/>
</svg>
