<svg width="30" height="32" viewBox="0 0 30 32" fill="none" xmlns="http://www.w3.org/2000/svg">
<path d="M2.10006 2.70058C6.14325e-05 4.87775 6.10352e-05 8.35917 6.10352e-05 15.3323V16.5646C6.10352e-05 23.5275 6.14325e-05 27.0089 2.10006 29.1963C4.22006 31.353 7.61006 31.353 14.4001 31.353H15.6001C22.3801 31.353 25.7701 31.353 27.9001 29.1963C30.0001 27.0192 30.0001 23.5377 30.0001 16.5646V15.3323C30.0001 8.36944 30.0001 4.88802 27.9001 2.70058C25.7801 0.543946 22.3901 0.543945 15.6001 0.543945H14.4001C7.62006 0.543945 4.23006 0.543946 2.10006 2.70058ZM5.06006 9.92016H8.50006C8.61006 15.7944 11.1301 18.2797 13.1301 18.7932V9.92016H16.3601V14.9831C18.3301 14.7674 20.4101 12.4568 21.1101 9.90989H24.3301C24.0676 11.2283 23.5432 12.477 22.7895 13.5778C22.0359 14.6787 21.0693 15.6081 19.9501 16.3079C21.1991 16.9461 22.3022 17.8491 23.1865 18.9573C24.0708 20.0654 24.7161 21.3536 25.0801 22.7367H21.5301C20.7701 20.3028 18.8701 18.4132 16.3601 18.1564V22.7367H15.9601C9.12006 22.7367 5.22006 17.9305 5.06006 9.92016Z" fill="white"/>
</svg>
