<svg width="24" height="25" viewBox="0 0 24 25" fill="none" xmlns="http://www.w3.org/2000/svg">
<path d="M9.6 17.6052L15.828 12.3236L9.6 7.04206V17.6052ZM23.472 3.82032C23.628 4.64776 23.736 5.75688 23.808 7.1653C23.892 8.57371 23.928 9.78846 23.928 10.8448L24 12.3236C24 16.1791 23.808 19.0136 23.472 20.8269C23.172 22.4114 22.476 23.4325 21.396 23.8726C20.832 24.1015 19.8 24.2599 18.216 24.3655C16.656 24.4888 15.228 24.5416 13.908 24.5416L12 24.6472C6.972 24.6472 3.84 24.3655 2.604 23.8726C1.524 23.4325 0.828 22.4114 0.528 20.8269C0.372 19.9995 0.264 18.8903 0.192 17.4819C0.108 16.0735 0.0719999 14.8587 0.0719999 13.8024L0 12.3236C0 8.46808 0.192 5.63365 0.528 3.82032C0.828 2.23585 1.524 1.21476 2.604 0.774627C3.168 0.54576 4.2 0.387313 5.784 0.281682C7.344 0.158446 8.772 0.105631 10.092 0.105631L12 0C17.028 0 20.16 0.281683 21.396 0.774627C22.476 1.21476 23.172 2.23585 23.472 3.82032Z" fill="#333333"/>
</svg>
