<svg width="19" height="18" viewBox="0 0 19 18" fill="none" xmlns="http://www.w3.org/2000/svg">
<path d="M1 6.33371C1 6.09797 1.09839 5.87187 1.27352 5.70517C1.44865 5.53847 1.68618 5.44482 1.93385 5.44482H16.8755C17.1232 5.44482 17.3607 5.53847 17.5358 5.70517C17.711 5.87187 17.8093 6.09797 17.8093 6.33371V8.11149C17.8093 8.34724 17.711 8.57333 17.5358 8.74003C17.3607 8.90673 17.1232 9.00038 16.8755 9.00038H1.93385C1.68618 9.00038 1.44865 8.90673 1.27352 8.74003C1.09839 8.57333 1 8.34724 1 8.11149V6.33371ZM9.40467 5.44482V17.0004V5.44482Z" fill="#FFCB00"/>
<path d="M9.40467 5.44482V17.0004M1 6.33371C1 6.09797 1.09839 5.87187 1.27352 5.70517C1.44865 5.53847 1.68618 5.44482 1.93385 5.44482H16.8755C17.1232 5.44482 17.3607 5.53847 17.5358 5.70517C17.711 5.87187 17.8093 6.09797 17.8093 6.33371V8.11149C17.8093 8.34724 17.711 8.57333 17.5358 8.74003C17.3607 8.90673 17.1232 9.00038 16.8755 9.00038H1.93385C1.68618 9.00038 1.44865 8.90673 1.27352 8.74003C1.09839 8.57333 1 8.34724 1 8.11149V6.33371Z" stroke="#FFCB00" stroke-linecap="round" stroke-linejoin="round"/>
<path d="M15.9416 9.00039V15.2226C15.9416 15.6941 15.7448 16.1463 15.3946 16.4797C15.0443 16.8131 14.5692 17.0004 14.0739 17.0004H4.73538C4.24003 17.0004 3.76498 16.8131 3.41471 16.4797C3.06445 16.1463 2.86768 15.6941 2.86768 15.2226V9.00039M5.20231 5.44483C4.58312 5.44483 3.9893 5.21071 3.55147 4.79396C3.11365 4.37721 2.86768 3.81198 2.86768 3.22261C2.86768 2.63324 3.11365 2.06801 3.55147 1.65126C3.9893 1.23451 4.58312 1.00039 5.20231 1.00039C6.10318 0.985449 6.98599 1.40151 7.7356 2.19431C8.48521 2.98711 9.06684 4.11986 9.40464 5.44483C9.74244 4.11986 10.3241 2.98711 11.0737 2.19431C11.8233 1.40151 12.7061 0.985449 13.607 1.00039C14.2262 1.00039 14.82 1.23451 15.2578 1.65126C15.6956 2.06801 15.9416 2.63324 15.9416 3.22261C15.9416 3.81198 15.6956 4.37721 15.2578 4.79396C14.82 5.21071 14.2262 5.44483 13.607 5.44483" stroke="#FFCB00" stroke-linecap="round" stroke-linejoin="round"/>
</svg>
