<svg width="25" height="25" viewBox="0 0 25 25" fill="none" xmlns="http://www.w3.org/2000/svg">
<path d="M12.0824 0C10.6034 0 9.185 0.599251 8.13921 1.66592C7.09342 2.7326 6.5059 4.17932 6.5059 5.68782C6.5059 8.82939 11.3565 16.6302 11.3565 20.8553H12.8083C12.8083 16.6445 17.6589 8.57344 17.6589 5.68782C17.6589 4.17932 17.0713 2.7326 16.0255 1.66592C14.9798 0.599251 13.5614 0 12.0824 0ZM12.0824 2.84391C12.8219 2.84391 13.5311 3.14353 14.054 3.67687C14.5769 4.21021 14.8706 4.93357 14.8706 5.68782C14.8706 6.44207 14.5769 7.16543 14.054 7.69877C13.5311 8.2321 12.8219 8.53173 12.0824 8.53173C11.3429 8.53173 10.6337 8.2321 10.1108 7.69877C9.5879 7.16543 9.29414 6.44207 9.29414 5.68782C9.29414 4.93357 9.5879 4.21021 10.1108 3.67687C10.6337 3.14353 11.3429 2.84391 12.0824 2.84391ZM6.36091 16.3819C6.34105 16.3913 6.32152 16.4014 6.30236 16.4122C4.58759 16.7193 3.13398 17.1402 2.03356 17.7157C1.48242 18.0029 1.00748 18.3432 0.639437 18.7518C0.270459 19.1613 0 19.6931 0 20.2922C0 21.1909 0.583672 21.8934 1.27794 22.3958C1.97222 22.8982 2.84865 23.2821 3.9212 23.6101C6.0635 24.2661 8.92702 24.6472 12.0824 24.6472C15.2377 24.6472 18.1013 24.2661 20.2436 23.6101C21.3152 23.2821 22.1925 22.8992 22.8868 22.3958C23.5811 21.8934 24.1648 21.1909 24.1648 20.2922C24.1648 19.6912 23.8952 19.1319 23.5253 18.7224C23.1554 18.3129 22.6851 18.0029 22.1312 17.7147C21.0252 17.1393 19.5577 16.7184 17.8327 16.4113C17.7114 16.3873 17.5866 16.3882 17.4657 16.414C17.3448 16.4398 17.2301 16.4899 17.1284 16.5614C17.0266 16.6329 16.9399 16.7244 16.8733 16.8305C16.8066 16.9366 16.7614 17.0552 16.7402 17.1793C16.719 17.3034 16.7223 17.4306 16.7499 17.5535C16.7774 17.6763 16.8287 17.7923 16.9008 17.8947C16.9728 17.997 17.0641 18.0837 17.1694 18.1497C17.2747 18.2156 17.3918 18.2595 17.5139 18.2788C19.1153 18.5631 20.4462 18.966 21.2892 19.404C21.7111 19.622 22.0076 19.8562 22.1609 20.0259C22.3143 20.1955 22.3059 20.2629 22.3059 20.2922C22.3059 20.3368 22.2465 20.5416 21.8124 20.8553C21.3784 21.1691 20.6386 21.5132 19.6915 21.8033C17.7983 22.3825 15.0862 22.7513 12.0824 22.7513C9.07851 22.7513 6.36648 22.3825 4.47234 21.8033C3.5262 21.5132 2.78638 21.1691 2.35328 20.8553C1.91831 20.5416 1.85883 20.3368 1.85883 20.2922C1.85883 20.2638 1.85232 20.1946 2.00382 20.0259C2.15624 19.8571 2.45644 19.622 2.87561 19.404C3.71208 18.967 5.02999 18.5641 6.62207 18.2778C6.74592 18.2625 6.86553 18.2221 6.97391 18.1591C7.08228 18.0961 7.17726 18.0116 7.25327 17.9107C7.32929 17.8098 7.38482 17.6945 7.41663 17.5714C7.44844 17.4484 7.45588 17.3201 7.43853 17.1941C7.42117 17.0681 7.37936 16.9469 7.31554 16.8376C7.25172 16.7282 7.16717 16.633 7.06684 16.5573C6.96651 16.4817 6.8524 16.4272 6.73119 16.3971C6.60999 16.367 6.4841 16.3618 6.36091 16.3819Z" fill="#F8F8F8"/>
</svg>
