<svg width="24" height="25" viewBox="0 0 24 25" fill="none" xmlns="http://www.w3.org/2000/svg">
<path d="M1.68 1.72531C3.17891e-07 3.46704 0 6.25218 0 11.8307V12.8166C0 18.3868 3.17891e-07 21.172 1.68 22.9219C3.376 24.6472 6.088 24.6472 11.52 24.6472H12.48C17.904 24.6472 20.616 24.6472 22.32 22.9219C24 21.1802 24 18.395 24 12.8166V11.8307C24 6.26039 24 3.47526 22.32 1.72531C20.624 3.26464e-07 17.912 0 12.48 0H11.52C6.096 0 3.384 3.26464e-07 1.68 1.72531ZM4.048 7.50097H6.8C6.888 12.2004 8.904 14.1886 10.504 14.5994V7.50097H13.088V11.5513C14.664 11.3788 16.328 9.53026 16.888 7.49275H19.464C19.254 8.54749 18.8345 9.54642 18.2316 10.4271C17.6287 11.3078 16.8554 12.0513 15.96 12.6112C16.9592 13.1217 17.8417 13.8441 18.5491 14.7306C19.2566 15.6172 19.7729 16.6477 20.064 17.7542H17.224C16.616 15.8071 15.096 14.2954 13.088 14.09V17.7542H12.768C7.296 17.7542 4.176 13.9092 4.048 7.50097Z" fill="#333333"/>
</svg>
