<svg width="30" height="32" viewBox="0 0 30 32" fill="none" xmlns="http://www.w3.org/2000/svg">
<path fill-rule="evenodd" clip-rule="evenodd" d="M15.0001 0.543945C6.71556 0.543945 6.10352e-05 7.44054 6.10352e-05 15.9484C6.10352e-05 18.8599 0.787561 21.5865 2.15706 23.9095L0.819061 28.5801C0.742238 28.8483 0.737183 29.1328 0.804427 29.4036C0.871672 29.6745 1.00873 29.9218 1.2012 30.1194C1.39367 30.3171 1.63443 30.4578 1.89819 30.5269C2.16194 30.596 2.43894 30.5908 2.70006 30.5119L7.24806 29.1378C9.58607 30.5906 12.2674 31.3568 15.0001 31.3529C23.2845 31.3529 30 24.4564 30 15.9484C30 7.44054 23.2845 0.543945 15.0001 0.543945ZM11.6071 19.4345C14.6416 22.5493 17.5381 22.9606 18.5611 22.9991C20.1166 23.0576 21.6315 21.8376 22.221 20.4219C22.2955 20.2458 22.3225 20.0524 22.2993 19.8619C22.276 19.6714 22.2034 19.4908 22.0891 19.339C21.267 18.2607 20.1556 17.4858 19.0696 16.7156C18.8428 16.5546 18.5642 16.49 18.2921 16.5354C18.02 16.5808 17.7755 16.7326 17.6101 16.959L16.7101 18.3685C16.6627 18.4443 16.589 18.4986 16.504 18.5204C16.4189 18.5421 16.329 18.5297 16.2526 18.4856C15.6421 18.1266 14.7526 17.5166 14.1136 16.8604C13.4746 16.2042 12.9166 15.3323 12.6031 14.7454C12.5642 14.6708 12.5529 14.5843 12.5714 14.5019C12.5899 14.4194 12.6368 14.3467 12.7036 14.2971L14.0896 13.2403C14.2874 13.0637 14.415 12.8186 14.4482 12.5515C14.4814 12.2845 14.4178 12.0143 14.2696 11.7923C13.5976 10.7818 12.8146 9.49704 11.6791 8.64517C11.5325 8.53612 11.3609 8.46811 11.181 8.44786C11.0011 8.4276 10.8191 8.45578 10.6531 8.52964C9.27306 9.13658 8.07906 10.6924 8.13606 12.293C8.17356 13.3435 8.57406 16.3182 11.6071 19.4345Z" fill="white"/>
</svg>
