<svg width="30" height="32" viewBox="0 0 30 32" fill="none" xmlns="http://www.w3.org/2000/svg">
<path d="M12.0001 22.5504L19.7851 15.9485L12.0001 9.34652V22.5504ZM29.3401 5.31934C29.5351 6.35365 29.6701 7.74005 29.7601 9.50057C29.8651 11.2611 29.9101 12.7795 29.9101 14.0999L30.0001 15.9485C30.0001 20.7679 29.7601 24.3109 29.3401 26.5776C28.9651 28.5581 28.0951 29.8345 26.7451 30.3847C26.0401 30.6708 24.7501 30.8688 22.7701 31.0009C20.8201 31.1549 19.0351 31.2209 17.3851 31.2209L15.0001 31.353C8.71506 31.353 4.80006 31.0009 3.25506 30.3847C1.90506 29.8345 1.03506 28.5581 0.660061 26.5776C0.465061 25.5433 0.330061 24.1569 0.240061 22.3963C0.135061 20.6358 0.0900609 19.1174 0.0900609 17.797L6.10352e-05 15.9485C6.10352e-05 11.129 0.240061 7.58601 0.660061 5.31934C1.03506 3.33876 1.90506 2.06239 3.25506 1.51223C3.96006 1.22615 5.25006 1.02809 7.23006 0.896048C9.18006 0.742003 10.9651 0.675984 12.6151 0.675984L15.0001 0.543945C21.2851 0.543945 25.2001 0.896049 26.7451 1.51223C28.0951 2.06239 28.9651 3.33876 29.3401 5.31934Z" fill="#F8F8F8"/>
</svg>
