<svg width="20" height="22" viewBox="0 0 20 22" fill="none" xmlns="http://www.w3.org/2000/svg">
<path d="M20 10.7875C19.9995 8.06398 18.9457 5.45216 17.0705 3.52634C15.1952 1.60052 12.652 0.518367 10 0.517822V2.57176C11.5821 2.57213 13.1286 3.05406 14.4441 3.95666C15.7596 4.85926 16.7851 6.14204 17.391 7.64292C17.7931 8.63987 18.0001 9.7084 18 10.7875H20ZM0 8.73356V3.59872C0 3.32636 0.105357 3.06514 0.292893 2.87255C0.48043 2.67996 0.734784 2.57176 1 2.57176H6C6.26522 2.57176 6.51957 2.67996 6.70711 2.87255C6.89464 3.06514 7 3.32636 7 3.59872V7.70659C7 7.97896 6.89464 8.24017 6.70711 8.43277C6.51957 8.62536 6.26522 8.73356 6 8.73356H4C4 10.9125 4.84285 13.0022 6.34315 14.543C7.84344 16.0837 9.87827 16.9493 12 16.9493V14.8954C12 14.623 12.1054 14.3618 12.2929 14.1692C12.4804 13.9766 12.7348 13.8684 13 13.8684H17C17.2652 13.8684 17.5196 13.9766 17.7071 14.1692C17.8946 14.3618 18 14.623 18 14.8954V20.0302C18 20.3026 17.8946 20.5638 17.7071 20.7564C17.5196 20.949 17.2652 21.0572 17 21.0572H12C5.373 21.0572 0 15.5393 0 8.73356Z" fill="#F8F8F8"/>
<path d="M15.543 8.42962C15.8449 9.17707 16.0002 9.97835 16 10.7875H14.2C14.2001 10.2211 14.0916 9.66013 13.8806 9.13676C13.6695 8.61339 13.3602 8.13785 12.9701 7.7373C12.5801 7.33675 12.1171 7.01904 11.6074 6.80233C11.0978 6.58561 10.5516 6.47414 10 6.47427V4.62573C11.1867 4.6258 12.3466 4.98722 13.3333 5.66431C14.3199 6.34139 15.0889 7.30372 15.543 8.42962Z" fill="#F8F8F8"/>
</svg>
