<svg width="24" height="25" viewBox="0 0 24 25" fill="none" xmlns="http://www.w3.org/2000/svg">
<path fill-rule="evenodd" clip-rule="evenodd" d="M12 0C5.3724 0 0 5.51728 0 12.3236C0 14.6528 0.63 16.834 1.7256 18.6924L0.6552 22.429C0.593741 22.6435 0.589697 22.8711 0.643493 23.0878C0.697289 23.3044 0.806937 23.5023 0.960911 23.6604C1.11488 23.8185 1.3075 23.9311 1.5185 23.9864C1.7295 24.0416 1.9511 24.0375 2.16 23.9743L5.7984 22.8751C7.66881 24.0373 9.81386 24.6503 12 24.6472C18.6276 24.6472 24 19.1299 24 12.3236C24 5.51728 18.6276 0 12 0ZM9.2856 15.1124C11.7132 17.6043 14.0304 17.9333 14.8488 17.9641C16.0932 18.0109 17.3052 17.0349 17.7768 15.9024C17.8363 15.7615 17.8579 15.6068 17.8394 15.4544C17.8208 15.302 17.7627 15.1575 17.6712 15.036C17.0136 14.1734 16.1244 13.5535 15.2556 12.9373C15.0742 12.8085 14.8513 12.7568 14.6336 12.7931C14.4159 12.8294 14.2204 12.9509 14.088 13.132L13.368 14.2596C13.3301 14.3203 13.2712 14.3637 13.2031 14.3811C13.1351 14.3986 13.0631 14.3886 13.002 14.3533C12.5136 14.0662 11.802 13.5781 11.2908 13.0532C10.7796 12.5282 10.3332 11.8307 10.0824 11.3611C10.0513 11.3015 10.0423 11.2323 10.0571 11.1663C10.0719 11.1004 10.1094 11.0422 10.1628 11.0025L11.2716 10.1571C11.4298 10.0158 11.532 9.81969 11.5585 9.60608C11.5851 9.39247 11.5342 9.17629 11.4156 8.99869C10.878 8.19027 10.2516 7.16248 9.3432 6.48098C9.22596 6.39374 9.08863 6.33933 8.94472 6.32313C8.8008 6.30692 8.65525 6.32947 8.5224 6.38856C7.4184 6.8741 6.4632 8.11879 6.5088 9.39921C6.5388 10.2397 6.8592 12.6194 9.2856 15.1124Z" fill="#333333"/>
</svg>
