<svg width="26" height="36" viewBox="0 0 26 36" fill="none" xmlns="http://www.w3.org/2000/svg">
<mask id="mask0_37_164" style="mask-type:luminance" maskUnits="userSpaceOnUse" x="1" y="1" width="23" height="34">
<path d="M23.8412 1.08655H1.31256V34.8796H23.8412V1.08655Z" fill="white"/>
</mask>
<g mask="url(#mask0_37_164)">
<path d="M23.3053 3.91277V25.9835C23.3053 26.4136 23.1237 26.8261 22.8005 27.1302C22.4771 27.4343 22.0386 27.6052 21.5814 27.6052H16.16C16.2588 27.2807 16.3088 26.9447 16.3085 26.6072C16.3085 25.6769 15.9157 24.7845 15.2164 24.1267C14.517 23.4688 13.5685 23.0992 12.5794 23.0992C11.5904 23.0992 10.6419 23.4688 9.94253 24.1267C9.24319 24.7845 8.85029 25.6769 8.85029 26.6072C8.84914 26.9451 8.90099 27.2814 9.00412 27.6052H3.56158C3.10436 27.6052 2.66585 27.4343 2.34253 27.1302C2.01923 26.8261 1.83759 26.4136 1.83759 25.9835V3.91277C1.83689 3.69961 1.88101 3.48843 1.96739 3.29137C2.05378 3.09432 2.18075 2.91527 2.34098 2.76455C2.50121 2.61382 2.69154 2.49439 2.90102 2.41313C3.1105 2.33186 3.33499 2.29037 3.56158 2.29102H21.5973C22.0522 2.29366 22.4874 2.46584 22.8076 2.76984C23.1278 3.07383 23.3067 3.48483 23.3053 3.91277Z" stroke="#333333" stroke-width="2" stroke-linecap="round" stroke-linejoin="round"/>
<path d="M6.09772 6.48694H19.0304" stroke="#333333" stroke-width="2" stroke-linecap="round" stroke-linejoin="round"/>
<path d="M6.09772 9.46326H19.0304" stroke="#333333" stroke-width="2" stroke-linecap="round" stroke-linejoin="round"/>
<path d="M6.09772 12.4355H19.0304" stroke="#333333" stroke-width="2" stroke-linecap="round" stroke-linejoin="round"/>
<path d="M6.09772 15.4146H19.0304" stroke="#333333" stroke-width="2" stroke-linecap="round" stroke-linejoin="round"/>
<path d="M6.09772 18.3896H19.0304" stroke="#333333" stroke-width="2" stroke-linecap="round" stroke-linejoin="round"/>
<path d="M16.296 26.6116C16.2961 26.9492 16.2461 27.2852 16.1474 27.6097C15.9303 28.3454 15.4628 28.994 14.8167 29.4561C14.1705 29.9181 13.3811 30.1685 12.5694 30.1685C11.7577 30.1685 10.9683 29.9181 10.3221 29.4561C9.67595 28.994 9.20853 28.3454 8.99144 27.6097C8.8883 27.2859 8.83646 26.9496 8.8376 26.6116C8.8376 25.6813 9.2305 24.789 9.92986 24.1311C10.6292 23.4732 11.5777 23.1036 12.5668 23.1036C13.5558 23.1036 14.5044 23.4732 15.2037 24.1311C15.903 24.789 16.296 25.6813 16.296 26.6116Z" stroke="#333333" stroke-width="2" stroke-linecap="round" stroke-linejoin="round"/>
<path d="M15.0088 29.2705V33.6767L12.574 32.6039L10.1392 33.6767V29.2656C10.8147 29.8175 11.6793 30.1213 12.574 30.1213C13.4687 30.1213 14.3333 29.8175 15.0088 29.2656V29.2705Z" stroke="#333333" stroke-width="2" stroke-linecap="round" stroke-linejoin="round"/>
</g>
</svg>
