<svg width="37" height="36" viewBox="0 0 37 36" fill="none" xmlns="http://www.w3.org/2000/svg">
<g clip-path="url(#clip0_37_185)">
<path d="M9.40794 12.9186C9.40689 13.2327 9.49767 13.5401 9.66879 13.8017C9.8399 14.0633 10.0836 14.2675 10.3691 14.3882C10.6546 14.5089 10.9689 14.5407 11.2722 14.4797C11.5755 14.4187 11.8541 14.2675 12.0728 14.0454C12.2914 13.8233 12.4402 13.5402 12.5003 13.2321C12.5603 12.9239 12.5289 12.6046 12.4101 12.3146C12.2913 12.0246 12.0904 11.777 11.8329 11.6031C11.5753 11.4293 11.2728 11.337 10.9636 11.3381C10.6546 11.3381 10.3526 11.245 10.0958 11.0705C9.83897 10.8959 9.63889 10.6479 9.5209 10.3578C9.40291 10.0677 9.3723 9.74856 9.43298 9.44077C9.49364 9.13299 9.64285 8.8504 9.8617 8.62884C10.0806 8.40725 10.3592 8.25664 10.6624 8.19608C10.9655 8.13549 11.2796 8.16768 11.5647 8.28854C11.8499 8.40942 12.0933 8.61355 12.2642 8.87506C12.435 9.13659 12.5257 9.44373 12.5246 9.75763" stroke="#333333" stroke-width="2" stroke-linecap="round" stroke-linejoin="round"/>
<path d="M10.9811 8.17665V6.98706" stroke="#333333" stroke-width="2" stroke-linecap="round" stroke-linejoin="round"/>
<path d="M10.9811 15.6915V14.502" stroke="#333333" stroke-width="2" stroke-linecap="round" stroke-linejoin="round"/>
<path d="M17.1407 28.22L12.4361 29.7022C12.1773 29.7843 11.8994 29.7803 11.6429 29.6912C11.3863 29.602 11.1644 29.4322 11.0092 29.2063C10.9095 29.0624 10.8396 28.8993 10.8037 28.7272C10.7678 28.555 10.7666 28.3772 10.8002 28.2045C10.8338 28.0318 10.9014 27.8679 10.9992 27.7225C11.0969 27.5772 11.2225 27.4535 11.3686 27.3588L19.6136 22.0288C20.3004 21.5816 21.1286 21.416 21.9311 21.5655L25.096 22.1542V30.1765H22.0919C21.7777 30.1757 21.467 30.2425 21.18 30.3726L14.0239 33.5498C13.5981 33.7406 13.1348 33.8294 12.6698 33.8096C12.2048 33.7897 11.7504 33.6617 11.3418 33.4354L2.44235 28.5305C2.07546 28.3251 1.80184 27.9826 1.67962 27.5755C1.55742 27.1684 1.59626 26.729 1.7879 26.3505C1.97284 25.9951 2.28024 25.7213 2.65133 25.5816C3.02243 25.4418 3.4312 25.4459 3.79953 25.5931L10.7732 28.4597" stroke="#333333" stroke-width="2" stroke-linecap="round" stroke-linejoin="round"/>
<path d="M34.4879 20.2379H25.9694C25.4894 20.2379 25.1003 20.6333 25.1003 21.1209V31.2413C25.1003 31.7289 25.4894 32.1242 25.9694 32.1242H34.4879C34.9679 32.1242 35.357 31.7289 35.357 31.2413V21.1209C35.357 20.6333 34.9679 20.2379 34.4879 20.2379Z" stroke="#333333" stroke-width="2" stroke-linecap="round" stroke-linejoin="round"/>
<path d="M10.9821 1.91455C10.9821 1.91455 8.19797 5.64229 4.00842 4.97196V12.6291C4.00941 13.22 4.10358 13.8069 4.28737 14.3676C4.93645 16.3405 6.80861 20.5859 10.9713 20.7548C15.1341 20.5859 17.0063 16.3405 17.6554 14.3676C17.8416 13.8076 17.936 13.2202 17.9342 12.6291V4.97196C13.7501 5.64229 10.9821 1.91455 10.9821 1.91455Z" stroke="#333333" stroke-width="2" stroke-linecap="round" stroke-linejoin="round"/>
</g>
<defs>
<clipPath id="clip0_37_185">
<rect width="36.5909" height="35" fill="white" transform="translate(6.10352e-05 0.517822)"/>
</clipPath>
</defs>
</svg>
