<svg width="30" height="32" viewBox="0 0 30 32" fill="none" xmlns="http://www.w3.org/2000/svg">
<path d="M16.5425 0.543945C18.23 0.548567 19.0865 0.557809 19.826 0.579375L20.117 0.590158C20.4529 0.602481 20.7844 0.617885 21.1849 0.63637C22.7809 0.713391 23.8699 0.972181 24.8253 1.35266C25.8153 1.74393 26.6493 2.27383 27.4833 3.12876C28.246 3.89881 28.8362 4.83029 29.2127 5.85838C29.5832 6.83962 29.8352 7.95796 29.9102 9.5985C29.9282 10.0083 29.9432 10.3487 29.9552 10.6953L29.9642 10.9941C29.9867 11.752 29.9957 12.6316 29.9987 14.3645L30.0002 15.5137V17.5316C30.0039 18.6552 29.9924 19.7788 29.9657 20.9021L29.9567 21.2009C29.9447 21.5475 29.9297 21.8879 29.9117 22.2977C29.8367 23.9382 29.5817 25.055 29.2127 26.0378C28.8373 27.0665 28.247 27.9982 27.4833 28.7674C26.7332 29.5505 25.8263 30.1565 24.8253 30.5435C23.8699 30.924 22.7809 31.1828 21.1849 31.2598C20.829 31.277 20.473 31.2924 20.117 31.306L19.826 31.3153C19.0865 31.3368 18.23 31.3476 16.5425 31.3507L15.4236 31.3522H13.4601C12.3655 31.3561 11.271 31.3443 10.1767 31.3168L9.8857 31.3076C9.52962 31.2937 9.17362 31.2778 8.81772 31.2598C7.22176 31.1828 6.13278 30.924 5.17581 30.5435C4.17483 30.1575 3.26818 29.5513 2.51937 28.7674C1.75595 27.9977 1.16524 27.0661 0.788408 26.0378C0.417917 25.0566 0.165923 23.9382 0.0909243 22.2977C0.0742129 21.9322 0.0592132 21.5666 0.0459254 21.2009L0.0384258 20.9021C0.0107845 19.7788 -0.00171655 18.6552 0.000926516 17.5316V14.3645C-0.00325984 13.241 0.00774108 12.1174 0.0339259 10.9941L0.0444256 10.6953C0.0564253 10.3487 0.0714249 10.0083 0.0894245 9.5985C0.164423 7.95796 0.416417 6.84116 0.786908 5.85838C1.16357 4.82923 1.75547 3.89746 2.52087 3.12876C3.26949 2.34542 4.17554 1.73929 5.17581 1.35266C6.13278 0.972181 7.22026 0.713391 8.81772 0.63637C9.21671 0.617885 9.5497 0.602481 9.8857 0.590158L10.1767 0.580915C11.2705 0.553546 12.3645 0.541735 13.4586 0.545486L16.5425 0.543945ZM15.0006 8.24602C13.0115 8.24602 11.1039 9.05749 9.6974 10.5019C8.29091 11.9463 7.50075 13.9054 7.50075 15.9481C7.50075 17.9908 8.29091 19.9499 9.6974 21.3943C11.1039 22.8387 13.0115 23.6502 15.0006 23.6502C16.9897 23.6502 18.8973 22.8387 20.3038 21.3943C21.7102 19.9499 22.5004 17.9908 22.5004 15.9481C22.5004 13.9054 21.7102 11.9463 20.3038 10.5019C18.8973 9.05749 16.9897 8.24602 15.0006 8.24602ZM15.0006 11.3268C15.5915 11.3267 16.1767 11.4462 16.7227 11.6783C17.2687 11.9105 17.7648 12.2508 18.1827 12.6798C18.6006 13.1089 18.9322 13.6183 19.1584 14.1789C19.3846 14.7395 19.5011 15.3405 19.5012 15.9473C19.5013 16.5542 19.385 17.1551 19.159 17.7159C18.9329 18.2766 18.6015 18.7861 18.1838 19.2153C17.766 19.6445 17.27 19.9849 16.7241 20.2173C16.1781 20.4496 15.593 20.5692 15.0021 20.5693C13.8086 20.5693 12.6641 20.0825 11.8202 19.2158C10.9763 18.3492 10.5022 17.1737 10.5022 15.9481C10.5022 14.7225 10.9763 13.547 11.8202 12.6804C12.6641 11.8137 13.8086 11.3268 15.0021 11.3268M22.8769 5.9354C22.3796 5.9354 21.9027 6.13826 21.5511 6.49937C21.1995 6.86047 21.0019 7.35024 21.0019 7.86092C21.0019 8.3716 21.1995 8.86136 21.5511 9.22246C21.9027 9.58357 22.3796 9.78644 22.8769 9.78644C23.3742 9.78644 23.8511 9.58357 24.2027 9.22246C24.5543 8.86136 24.7518 8.3716 24.7518 7.86092C24.7518 7.35024 24.5543 6.86047 24.2027 6.49937C23.8511 6.13826 23.3742 5.9354 22.8769 5.9354Z" fill="#F8F8F8"/>
</svg>
