<svg width="890" height="886" viewBox="0 0 890 886" fill="none" xmlns="http://www.w3.org/2000/svg">
<path d="M-591.495 881.197C-594.392 883.248 -597.961 884.121 -601.478 883.639C-604.996 883.157 -608.198 881.356 -610.436 878.601C-612.674 875.846 -613.781 872.344 -613.532 868.804C-613.283 865.264 -611.697 861.951 -609.095 859.537L-542.571 805.746C-540.058 803.707 -536.914 802.605 -533.678 802.627C-530.441 802.649 -527.312 803.794 -524.827 805.866L-458.472 859.537C-456.893 860.635 -455.557 862.047 -454.548 863.684C-453.539 865.322 -452.879 867.15 -452.609 869.054C-452.339 870.958 -452.465 872.898 -452.978 874.751C-453.492 876.604 -454.383 878.332 -455.595 879.825C-456.807 881.319 -458.314 882.547 -460.022 883.432C-461.73 884.317 -463.603 884.84 -465.522 884.969C-467.442 885.097 -469.367 884.829 -471.178 884.18C-472.99 883.531 -474.647 882.516 -476.048 881.197L-533.832 834.507L-591.615 881.197H-591.495ZM-591.495 792.148C-594.392 794.199 -597.961 795.071 -601.478 794.589C-604.996 794.107 -608.198 792.306 -610.436 789.552C-612.674 786.797 -613.781 783.295 -613.532 779.755C-613.283 776.215 -611.697 772.902 -609.095 770.487L-542.571 716.504C-540.055 714.469 -536.91 713.37 -533.673 713.397C-530.437 713.423 -527.31 714.572 -524.827 716.649L-458.472 770.295C-456.893 771.393 -455.557 772.805 -454.548 774.442C-453.539 776.08 -452.879 777.908 -452.609 779.812C-452.339 781.716 -452.465 783.656 -452.978 785.509C-453.492 787.362 -454.383 789.09 -455.595 790.583C-456.807 792.077 -458.314 793.305 -460.022 794.19C-461.73 795.075 -463.603 795.598 -465.522 795.727C-467.442 795.855 -469.367 795.587 -471.178 794.938C-472.99 794.289 -474.647 793.274 -476.048 791.955L-533.832 745.289L-591.615 791.955L-591.495 792.148ZM-591.495 703.099C-594.392 705.149 -597.961 706.022 -601.478 705.54C-604.996 705.058 -608.198 703.257 -610.436 700.502C-612.674 697.748 -613.781 694.245 -613.532 690.705C-613.283 687.165 -611.697 683.852 -609.095 681.438L-542.571 627.455C-540.058 625.416 -536.914 624.313 -533.678 624.335C-530.441 624.357 -527.312 625.502 -524.827 627.575L-458.472 681.245C-456.893 682.343 -455.557 683.755 -454.548 685.393C-453.539 687.03 -452.879 688.859 -452.609 690.763C-452.339 692.667 -452.465 694.606 -452.978 696.459C-453.492 698.313 -454.383 700.04 -455.595 701.534C-456.807 703.028 -458.314 704.255 -460.022 705.14C-461.73 706.025 -463.603 706.548 -465.522 706.677C-467.442 706.806 -469.367 706.537 -471.178 705.889C-472.99 705.24 -474.647 704.224 -476.048 702.906L-533.832 656.215L-591.615 702.906L-591.495 703.099ZM-591.495 614.049C-594.392 616.1 -597.961 616.973 -601.478 616.49C-604.996 616.008 -608.198 614.207 -610.436 611.453C-612.674 608.698 -613.781 605.196 -613.532 601.656C-613.283 598.116 -611.697 594.803 -609.095 592.388L-542.571 538.405C-540.055 536.37 -536.91 535.271 -533.673 535.298C-530.437 535.324 -527.31 536.474 -524.827 538.55L-458.472 592.196C-456.893 593.294 -455.557 594.706 -454.548 596.343C-453.539 597.981 -452.879 599.809 -452.609 601.713C-452.339 603.617 -452.465 605.557 -452.978 607.41C-453.492 609.263 -454.383 610.991 -455.595 612.485C-456.807 613.978 -458.314 615.206 -460.022 616.091C-461.73 616.976 -463.603 617.499 -465.522 617.628C-467.442 617.756 -469.367 617.488 -471.178 616.839C-472.99 616.19 -474.647 615.175 -476.048 613.857L-533.832 567.19L-591.615 613.857L-591.495 614.049ZM-591.495 525C-592.898 526.302 -594.554 527.302 -596.36 527.939C-598.166 528.575 -600.083 528.834 -601.993 528.7C-603.903 528.566 -605.765 528.041 -607.464 527.158C-609.163 526.275 -610.663 525.053 -611.87 523.567C-613.077 522.081 -613.966 520.364 -614.482 518.521C-614.998 516.677 -615.13 514.748 -614.87 512.852C-614.61 510.955 -613.963 509.133 -612.97 507.496C-611.976 505.86 -610.658 504.445 -609.095 503.339L-542.571 449.356C-540.058 447.317 -536.914 446.214 -533.678 446.236C-530.441 446.258 -527.312 447.403 -524.827 449.476L-458.472 503.146C-456.893 504.244 -455.557 505.656 -454.548 507.294C-453.539 508.932 -452.879 510.76 -452.609 512.664C-452.339 514.568 -452.465 516.507 -452.978 518.361C-453.492 520.214 -454.383 521.941 -455.595 523.435C-456.807 524.929 -458.314 526.156 -460.022 527.041C-461.73 527.926 -463.603 528.449 -465.522 528.578C-467.442 528.707 -469.367 528.439 -471.178 527.79C-472.99 527.141 -474.647 526.125 -476.048 524.807L-533.832 478.116L-591.615 524.807L-591.495 525ZM-591.495 435.95C-592.898 437.252 -594.554 438.253 -596.36 438.889C-598.166 439.526 -600.083 439.785 -601.993 439.65C-603.903 439.516 -605.765 438.991 -607.464 438.108C-609.163 437.225 -610.663 436.003 -611.87 434.518C-613.077 433.032 -613.966 431.314 -614.482 429.471C-614.998 427.628 -615.13 425.698 -614.87 423.802C-614.61 421.906 -613.963 420.083 -612.97 418.447C-611.976 416.811 -610.658 415.396 -609.095 414.29L-542.571 360.306C-540.055 358.271 -536.91 357.173 -533.673 357.199C-530.437 357.225 -527.31 358.375 -524.827 360.451L-458.472 414.097C-456.893 415.195 -455.557 416.607 -454.548 418.245C-453.539 419.882 -452.879 421.71 -452.609 423.614C-452.339 425.518 -452.465 427.458 -452.978 429.311C-453.492 431.164 -454.383 432.892 -455.595 434.386C-456.807 435.879 -458.314 437.107 -460.022 437.992C-461.73 438.877 -463.603 439.4 -465.522 439.529C-467.442 439.657 -469.367 439.389 -471.178 438.74C-472.99 438.091 -474.647 437.076 -476.048 435.758L-533.832 389.091L-591.615 435.758L-591.495 435.95ZM-591.495 346.901C-594.392 348.951 -597.961 349.824 -601.478 349.342C-604.996 348.86 -608.198 347.059 -610.436 344.304C-612.674 341.55 -613.781 338.047 -613.532 334.507C-613.283 330.967 -611.697 327.654 -609.095 325.24L-542.571 271.257C-540.058 269.218 -536.914 268.115 -533.678 268.137C-530.441 268.159 -527.312 269.305 -524.827 271.377L-458.472 325.048C-456.893 326.146 -455.557 327.557 -454.548 329.195C-453.539 330.833 -452.879 332.661 -452.609 334.565C-452.339 336.469 -452.465 338.408 -452.978 340.262C-453.492 342.115 -454.383 343.842 -455.595 345.336C-456.807 346.83 -458.314 348.057 -460.022 348.942C-461.73 349.827 -463.603 350.35 -465.522 350.479C-467.442 350.608 -469.367 350.34 -471.178 349.691C-472.99 349.042 -474.647 348.027 -476.048 346.708L-533.832 300.017L-591.615 346.708L-591.495 346.901ZM-591.495 257.851C-592.898 259.153 -594.554 260.154 -596.36 260.79C-598.166 261.427 -600.083 261.686 -601.993 261.552C-603.903 261.417 -605.765 260.892 -607.464 260.01C-609.163 259.127 -610.663 257.904 -611.87 256.419C-613.077 254.933 -613.966 253.215 -614.482 251.372C-614.998 249.529 -615.13 247.599 -614.87 245.703C-614.61 243.807 -613.963 241.984 -612.97 240.348C-611.976 238.712 -610.658 237.297 -609.095 236.191L-542.571 182.207C-540.055 180.172 -536.91 179.074 -533.673 179.1C-530.437 179.126 -527.31 180.276 -524.827 182.352L-458.472 235.998C-456.893 237.096 -455.557 238.508 -454.548 240.146C-453.539 241.783 -452.879 243.611 -452.609 245.515C-452.339 247.419 -452.465 249.359 -452.978 251.212C-453.492 253.065 -454.383 254.793 -455.595 256.287C-456.807 257.78 -458.314 259.008 -460.022 259.893C-461.73 260.778 -463.603 261.301 -465.522 261.43C-467.442 261.559 -469.367 261.29 -471.178 260.641C-472.99 259.992 -474.647 258.977 -476.048 257.659L-533.832 210.992L-591.615 257.659L-591.495 257.851ZM-591.495 168.802C-592.898 170.104 -594.554 171.104 -596.36 171.741C-598.166 172.377 -600.083 172.636 -601.993 172.502C-603.903 172.368 -605.765 171.843 -607.464 170.96C-609.163 170.077 -610.663 168.855 -611.87 167.369C-613.077 165.884 -613.966 164.166 -614.482 162.323C-614.998 160.479 -615.13 158.55 -614.87 156.654C-614.61 154.757 -613.963 152.935 -612.97 151.298C-611.976 149.662 -610.658 148.247 -609.095 147.141L-542.571 93.1579C-540.058 91.1192 -536.914 90.0165 -533.678 90.0385C-530.441 90.0604 -527.312 91.2056 -524.827 93.2782L-458.472 146.949C-456.893 148.047 -455.557 149.459 -454.548 151.096C-453.539 152.734 -452.879 154.562 -452.609 156.466C-452.339 158.37 -452.465 160.309 -452.978 162.163C-453.492 164.016 -454.383 165.743 -455.595 167.237C-456.807 168.731 -458.314 169.958 -460.022 170.843C-461.73 171.728 -463.603 172.252 -465.522 172.38C-467.442 172.509 -469.367 172.241 -471.178 171.592C-472.99 170.943 -474.647 169.928 -476.048 168.609L-533.832 121.918L-591.615 168.609L-591.495 168.802ZM-591.495 79.7523C-592.898 81.0545 -594.554 82.0548 -596.36 82.6913C-598.166 83.3278 -600.083 83.5869 -601.993 83.4526C-603.903 83.3183 -605.765 82.7935 -607.464 81.9106C-609.163 81.0277 -610.663 79.8055 -611.87 78.3198C-613.077 76.8341 -613.966 75.1164 -614.482 73.2732C-614.998 71.43 -615.13 69.5005 -614.87 67.6042C-614.61 65.7079 -613.963 63.8852 -612.97 62.2489C-611.976 60.6127 -610.658 59.1977 -609.095 58.0916L-542.571 4.10842C-540.054 2.07833 -536.912 0.98118 -533.678 1.00311C-530.444 1.02505 -527.316 2.16469 -524.827 4.22873L-458.472 57.8991C-456.893 58.9972 -455.557 60.4091 -454.548 62.0467C-453.539 63.6842 -452.879 65.5122 -452.609 67.4164C-452.339 69.3205 -452.465 71.2599 -452.978 73.1132C-453.492 74.9665 -454.383 76.694 -455.595 78.1877C-456.807 79.6813 -458.314 80.909 -460.022 81.7939C-461.73 82.6789 -463.603 83.2021 -465.522 83.3308C-467.442 83.4596 -469.367 83.1912 -471.178 82.5424C-472.99 81.8935 -474.647 80.8782 -476.048 79.5598L-533.832 32.893L-591.615 79.5598L-591.495 79.7523ZM526.474 881.197C525.07 882.5 523.415 883.5 521.609 884.136C519.803 884.773 517.886 885.032 515.975 884.898C514.065 884.763 512.203 884.239 510.504 883.356C508.806 882.473 507.306 881.251 506.099 879.765C504.892 878.279 504.003 876.562 503.486 874.718C502.97 872.875 502.838 870.946 503.098 869.049C503.358 867.153 504.005 865.33 504.999 863.694C505.992 862.058 507.311 860.643 508.874 859.537L575.397 805.746C577.91 803.707 581.054 802.605 584.291 802.627C587.527 802.649 590.656 803.794 593.141 805.866L659.496 859.537C661.076 860.635 662.412 862.047 663.421 863.684C664.429 865.322 665.09 867.15 665.36 869.054C665.63 870.958 665.504 872.898 664.99 874.751C664.476 876.604 663.586 878.332 662.374 879.825C661.162 881.319 659.655 882.547 657.946 883.432C656.238 884.317 654.366 884.84 652.446 884.969C650.527 885.097 648.601 884.829 646.79 884.18C644.979 883.531 643.321 882.516 641.92 881.197L584.137 834.507L526.353 881.197H526.474ZM526.474 792.148C525.07 793.45 523.415 794.45 521.609 795.087C519.803 795.723 517.886 795.983 515.975 795.848C514.065 795.714 512.203 795.189 510.504 794.306C508.806 793.423 507.306 792.201 506.099 790.715C504.892 789.23 504.003 787.512 503.486 785.669C502.97 783.826 502.838 781.896 503.098 780C503.358 778.104 504.005 776.281 504.999 774.645C505.992 773.008 507.311 771.593 508.874 770.487L575.397 716.504C577.913 714.469 581.059 713.37 584.295 713.397C587.532 713.423 590.659 714.572 593.141 716.649L659.496 770.295C661.076 771.393 662.412 772.805 663.421 774.442C664.429 776.08 665.09 777.908 665.36 779.812C665.63 781.716 665.504 783.656 664.99 785.509C664.476 787.362 663.586 789.09 662.374 790.583C661.162 792.077 659.655 793.305 657.946 794.19C656.238 795.075 654.366 795.598 652.446 795.727C650.527 795.855 648.601 795.587 646.79 794.938C644.979 794.289 643.321 793.274 641.92 791.955L584.137 745.289L526.353 791.955L526.474 792.148ZM526.474 703.099C525.07 704.401 523.415 705.401 521.609 706.037C519.803 706.674 517.886 706.933 515.975 706.799C514.065 706.665 512.203 706.14 510.504 705.257C508.806 704.374 507.306 703.152 506.099 701.666C504.892 700.18 504.003 698.463 503.486 696.619C502.97 694.776 502.838 692.847 503.098 690.95C503.358 689.054 504.005 687.231 504.999 685.595C505.992 683.959 507.311 682.544 508.874 681.438L575.397 627.455C577.91 625.416 581.054 624.313 584.291 624.335C587.527 624.357 590.656 625.502 593.141 627.575L659.496 681.245C661.076 682.343 662.412 683.755 663.421 685.393C664.429 687.03 665.09 688.859 665.36 690.763C665.63 692.667 665.504 694.606 664.99 696.459C664.476 698.313 663.586 700.04 662.374 701.534C661.162 703.028 659.655 704.255 657.946 705.14C656.238 706.025 654.366 706.548 652.446 706.677C650.527 706.806 648.601 706.537 646.79 705.889C644.979 705.24 643.321 704.224 641.92 702.906L584.137 656.215L526.353 702.906L526.474 703.099ZM526.474 614.049C523.576 616.1 520.007 616.973 516.49 616.49C512.973 616.008 509.77 614.207 507.532 611.453C505.294 608.698 504.187 605.196 504.437 601.656C504.686 598.116 506.272 594.803 508.874 592.388L575.397 538.405C577.913 536.37 581.059 535.271 584.295 535.298C587.532 535.324 590.659 536.474 593.141 538.55L659.496 592.196C661.076 593.294 662.412 594.706 663.421 596.343C664.429 597.981 665.09 599.809 665.36 601.713C665.63 603.617 665.504 605.557 664.99 607.41C664.476 609.263 663.586 610.991 662.374 612.485C661.162 613.978 659.655 615.206 657.946 616.091C656.238 616.976 654.366 617.499 652.446 617.628C650.527 617.756 648.601 617.488 646.79 616.839C644.979 616.19 643.321 615.175 641.92 613.857L584.137 567.19L526.353 613.857L526.474 614.049ZM526.474 525C523.576 527.05 520.007 527.923 516.49 527.441C512.973 526.959 509.77 525.158 507.532 522.403C505.294 519.649 504.187 516.146 504.437 512.606C504.686 509.066 506.272 505.753 508.874 503.339L575.397 449.356C577.91 447.317 581.054 446.214 584.291 446.236C587.527 446.258 590.656 447.403 593.141 449.476L659.496 503.146C661.076 504.244 662.412 505.656 663.421 507.294C664.429 508.932 665.09 510.76 665.36 512.664C665.63 514.568 665.504 516.507 664.99 518.361C664.476 520.214 663.586 521.941 662.374 523.435C661.162 524.929 659.655 526.156 657.946 527.041C656.238 527.926 654.366 528.449 652.446 528.578C650.527 528.707 648.601 528.439 646.79 527.79C644.979 527.141 643.321 526.125 641.92 524.807L584.137 478.116L526.353 524.807L526.474 525ZM526.474 435.95C523.576 438.001 520.007 438.874 516.49 438.391C512.973 437.909 509.77 436.108 507.532 433.354C505.294 430.599 504.187 427.097 504.437 423.557C504.686 420.017 506.272 416.704 508.874 414.29L575.397 360.306C577.913 358.271 581.059 357.173 584.295 357.199C587.532 357.225 590.659 358.375 593.141 360.451L659.496 414.097C661.076 415.195 662.412 416.607 663.421 418.245C664.429 419.882 665.09 421.71 665.36 423.614C665.63 425.518 665.504 427.458 664.99 429.311C664.476 431.164 663.586 432.892 662.374 434.386C661.162 435.879 659.655 437.107 657.946 437.992C656.238 438.877 654.366 439.4 652.446 439.529C650.527 439.657 648.601 439.389 646.79 438.74C644.979 438.091 643.321 437.076 641.92 435.758L584.137 389.091L526.353 435.758L526.474 435.95ZM526.474 346.901C523.576 348.951 520.007 349.824 516.49 349.342C512.973 348.86 509.77 347.059 507.532 344.304C505.294 341.55 504.187 338.047 504.437 334.507C504.686 330.967 506.272 327.654 508.874 325.24L575.397 271.257C577.91 269.218 581.054 268.115 584.291 268.137C587.527 268.159 590.656 269.305 593.141 271.377L659.496 325.048C661.076 326.146 662.412 327.557 663.421 329.195C664.429 330.833 665.09 332.661 665.36 334.565C665.63 336.469 665.504 338.408 664.99 340.262C664.476 342.115 663.586 343.842 662.374 345.336C661.162 346.83 659.655 348.057 657.946 348.942C656.238 349.827 654.366 350.35 652.446 350.479C650.527 350.608 648.601 350.34 646.79 349.691C644.979 349.042 643.321 348.027 641.92 346.708L584.137 300.017L526.353 346.708L526.474 346.901ZM526.474 257.851C523.576 259.902 520.007 260.775 516.49 260.293C512.973 259.81 509.77 258.01 507.532 255.255C505.294 252.5 504.187 248.998 504.437 245.458C504.686 241.918 506.272 238.605 508.874 236.191L575.397 182.207C577.913 180.172 581.059 179.074 584.295 179.1C587.532 179.126 590.659 180.276 593.141 182.352L659.496 235.998C661.076 237.096 662.412 238.508 663.421 240.146C664.429 241.783 665.09 243.611 665.36 245.515C665.63 247.419 665.504 249.359 664.99 251.212C664.476 253.065 663.586 254.793 662.374 256.287C661.162 257.78 659.655 259.008 657.946 259.893C656.238 260.778 654.366 261.301 652.446 261.43C650.527 261.559 648.601 261.29 646.79 260.641C644.979 259.992 643.321 258.977 641.92 257.659L584.137 210.992L526.353 257.659L526.474 257.851ZM526.474 168.802C523.576 170.852 520.007 171.725 516.49 171.243C512.973 170.761 509.77 168.96 507.532 166.205C505.294 163.451 504.187 159.949 504.437 156.408C504.686 152.868 506.272 149.555 508.874 147.141L575.397 93.1579C577.91 91.1192 581.054 90.0165 584.291 90.0385C587.527 90.0604 590.656 91.2056 593.141 93.2782L659.496 146.949C661.076 148.047 662.412 149.459 663.421 151.096C664.429 152.734 665.09 154.562 665.36 156.466C665.63 158.37 665.504 160.309 664.99 162.163C664.476 164.016 663.586 165.743 662.374 167.237C661.162 168.731 659.655 169.958 657.946 170.843C656.238 171.728 654.366 172.252 652.446 172.38C650.527 172.509 648.601 172.241 646.79 171.592C644.979 170.943 643.321 169.928 641.92 168.609L584.137 121.918L526.353 168.609L526.474 168.802ZM526.474 79.7523C523.576 81.803 520.007 82.6757 516.49 82.1936C512.973 81.7115 509.77 79.9106 507.532 77.1559C505.294 74.4013 504.187 70.899 504.437 67.359C504.686 63.819 506.272 60.506 508.874 58.0916L575.397 4.10842C577.914 2.07833 581.057 0.98118 584.291 1.00311C587.525 1.02505 590.652 2.16469 593.141 4.22873L659.496 57.8991C661.076 58.9972 662.412 60.4091 663.421 62.0467C664.429 63.6842 665.09 65.5122 665.36 67.4164C665.63 69.3205 665.504 71.2599 664.99 73.1132C664.476 74.9665 663.586 76.694 662.374 78.1877C661.162 79.6813 659.655 80.909 657.946 81.7939C656.238 82.6789 654.366 83.2021 652.446 83.3308C650.527 83.4596 648.601 83.1912 646.79 82.5424C644.979 81.8935 643.321 80.8782 641.92 79.5598L584.137 32.893L526.353 79.5598L526.474 79.7523ZM-144.298 881.197C-145.701 882.5 -147.357 883.5 -149.163 884.136C-150.969 884.773 -152.886 885.032 -154.796 884.898C-156.706 884.763 -158.568 884.239 -160.267 883.356C-161.966 882.473 -163.465 881.251 -164.673 879.765C-165.88 878.279 -166.769 876.562 -167.285 874.718C-167.801 872.875 -167.933 870.946 -167.673 869.049C-167.413 867.153 -166.766 865.33 -165.773 863.694C-164.779 862.058 -163.461 860.643 -161.898 859.537L-95.3744 805.746C-92.8611 803.707 -89.7173 802.605 -86.4806 802.627C-83.244 802.649 -80.1155 803.794 -77.63 805.866L-11.2752 859.537C-9.71247 860.643 -8.39354 862.058 -7.40009 863.694C-6.40663 865.33 -5.7597 867.153 -5.49956 869.049C-5.23943 870.946 -5.37152 872.875 -5.88766 874.718C-6.40381 876.562 -7.29312 878.279 -8.50031 879.765C-9.7075 881.251 -11.2069 882.473 -12.9058 883.356C-14.6047 884.239 -16.4669 884.763 -18.3769 884.898C-20.287 885.032 -22.2042 884.773 -24.01 884.136C-25.8158 883.5 -27.4718 882.5 -28.8751 881.197L-86.6587 834.507L-144.442 881.197H-144.298ZM-144.298 792.148C-147.195 794.199 -150.764 795.071 -154.281 794.589C-157.799 794.107 -161.001 792.306 -163.239 789.552C-165.477 786.797 -166.584 783.295 -166.335 779.755C-166.086 776.215 -164.5 772.902 -161.898 770.487L-95.3744 716.504C-92.8583 714.469 -89.7129 713.37 -86.4762 713.397C-83.2396 713.423 -80.1127 714.572 -77.63 716.649L-11.2752 770.295C-9.71247 771.401 -8.39354 772.816 -7.40009 774.452C-6.40663 776.088 -5.7597 777.911 -5.49956 779.807C-5.23943 781.704 -5.37152 783.633 -5.88766 785.476C-6.40381 787.32 -7.29312 789.037 -8.50031 790.523C-9.7075 792.009 -11.2069 793.231 -12.9058 794.114C-14.6047 794.997 -16.4669 795.521 -18.3769 795.656C-20.287 795.79 -22.2042 795.531 -24.01 794.895C-25.8158 794.258 -27.4718 793.258 -28.8751 791.955L-86.6587 745.289L-144.442 791.955L-144.298 792.148ZM-144.298 703.099C-147.195 705.149 -150.764 706.022 -154.281 705.54C-157.799 705.058 -161.001 703.257 -163.239 700.502C-165.477 697.748 -166.584 694.245 -166.335 690.705C-166.086 687.165 -164.5 683.852 -161.898 681.438L-95.3744 627.455C-92.8611 625.416 -89.7173 624.313 -86.4806 624.335C-83.244 624.357 -80.1155 625.502 -77.63 627.575L-11.2752 681.245C-9.71247 682.351 -8.39354 683.766 -7.40009 685.403C-6.40663 687.039 -5.7597 688.862 -5.49956 690.758C-5.23943 692.654 -5.37152 694.584 -5.88766 696.427C-6.40381 698.27 -7.29312 699.988 -8.50031 701.473C-9.7075 702.959 -11.2069 704.181 -12.9058 705.064C-14.6047 705.947 -16.4669 706.472 -18.3769 706.606C-20.287 706.741 -22.2042 706.482 -24.01 705.845C-25.8158 705.209 -27.4718 704.208 -28.8751 702.906L-86.6587 656.215L-144.442 702.906L-144.298 703.099ZM-144.298 614.049C-147.195 616.1 -150.764 616.973 -154.281 616.49C-157.799 616.008 -161.001 614.207 -163.239 611.453C-165.477 608.698 -166.584 605.196 -166.335 601.656C-166.086 598.116 -164.5 594.803 -161.898 592.388L-95.3744 538.405C-92.8583 536.37 -89.7129 535.271 -86.4762 535.298C-83.2396 535.324 -80.1127 536.474 -77.63 538.55L-11.2752 592.196C-9.71247 593.302 -8.39354 594.717 -7.40009 596.353C-6.40663 597.989 -5.7597 599.812 -5.49956 601.709C-5.23943 603.605 -5.37152 605.534 -5.88766 607.378C-6.40381 609.221 -7.29312 610.938 -8.50031 612.424C-9.7075 613.91 -11.2069 615.132 -12.9058 616.015C-14.6047 616.898 -16.4669 617.423 -18.3769 617.557C-20.287 617.691 -22.2042 617.432 -24.01 616.796C-25.8158 616.159 -27.4718 615.159 -28.8751 613.857L-86.6587 567.19L-144.442 613.857L-144.298 614.049ZM-144.298 525C-145.701 526.302 -147.357 527.302 -149.163 527.939C-150.969 528.575 -152.886 528.834 -154.796 528.7C-156.706 528.566 -158.568 528.041 -160.267 527.158C-161.966 526.275 -163.465 525.053 -164.673 523.567C-165.88 522.081 -166.769 520.364 -167.285 518.521C-167.801 516.677 -167.933 514.748 -167.673 512.852C-167.413 510.955 -166.766 509.133 -165.773 507.496C-164.779 505.86 -163.461 504.445 -161.898 503.339L-95.3744 449.356C-92.8611 447.317 -89.7173 446.214 -86.4806 446.236C-83.244 446.258 -80.1155 447.403 -77.63 449.476L-11.2752 503.146C-9.71247 504.252 -8.39354 505.667 -7.40009 507.304C-6.40663 508.94 -5.7597 510.763 -5.49956 512.659C-5.23943 514.555 -5.37152 516.485 -5.88766 518.328C-6.40381 520.171 -7.29312 521.889 -8.50031 523.375C-9.7075 524.86 -11.2069 526.083 -12.9058 526.965C-14.6047 527.848 -16.4669 528.373 -18.3769 528.507C-20.287 528.642 -22.2042 528.383 -24.01 527.746C-25.8158 527.11 -27.4718 526.109 -28.8751 524.807L-86.6587 478.116L-144.442 524.807L-144.298 525ZM-144.298 435.95C-145.701 437.252 -147.357 438.253 -149.163 438.889C-150.969 439.526 -152.886 439.785 -154.796 439.65C-156.706 439.516 -158.568 438.991 -160.267 438.108C-161.966 437.225 -163.465 436.003 -164.673 434.518C-165.88 433.032 -166.769 431.314 -167.285 429.471C-167.801 427.628 -167.933 425.698 -167.673 423.802C-167.413 421.906 -166.766 420.083 -165.773 418.447C-164.779 416.811 -163.461 415.396 -161.898 414.29L-95.3744 360.306C-92.8583 358.271 -89.7129 357.173 -86.4762 357.199C-83.2396 357.225 -80.1127 358.375 -77.63 360.451L-11.2752 414.097C-9.71247 415.203 -8.39354 416.618 -7.40009 418.254C-6.40663 419.89 -5.7597 421.713 -5.49956 423.61C-5.23943 425.506 -5.37152 427.435 -5.88766 429.279C-6.40381 431.122 -7.29312 432.839 -8.50031 434.325C-9.7075 435.811 -11.2069 437.033 -12.9058 437.916C-14.6047 438.799 -16.4669 439.324 -18.3769 439.458C-20.287 439.592 -22.2042 439.333 -24.01 438.697C-25.8158 438.06 -27.4718 437.06 -28.8751 435.758L-86.6587 389.091L-144.442 435.758L-144.298 435.95ZM-144.298 346.901C-147.195 348.951 -150.764 349.824 -154.281 349.342C-157.799 348.86 -161.001 347.059 -163.239 344.304C-165.477 341.55 -166.584 338.047 -166.335 334.507C-166.086 330.967 -164.5 327.654 -161.898 325.24L-95.3744 271.257C-92.8611 269.218 -89.7173 268.115 -86.4806 268.137C-83.244 268.159 -80.1155 269.305 -77.63 271.377L-11.2752 325.048C-9.71247 326.154 -8.39354 327.568 -7.40009 329.205C-6.40663 330.841 -5.7597 332.664 -5.49956 334.56C-5.23943 336.456 -5.37152 338.386 -5.88766 340.229C-6.40381 342.072 -7.29312 343.79 -8.50031 345.276C-9.7075 346.761 -11.2069 347.984 -12.9058 348.866C-14.6047 349.749 -16.4669 350.274 -18.3769 350.408C-20.287 350.543 -22.2042 350.284 -24.01 349.647C-25.8158 349.011 -27.4718 348.01 -28.8751 346.708L-86.6587 300.017L-144.442 346.708L-144.298 346.901ZM-144.298 257.851C-145.701 259.153 -147.357 260.154 -149.163 260.79C-150.969 261.427 -152.886 261.686 -154.796 261.552C-156.706 261.417 -158.568 260.892 -160.267 260.01C-161.966 259.127 -163.465 257.904 -164.673 256.419C-165.88 254.933 -166.769 253.215 -167.285 251.372C-167.801 249.529 -167.933 247.599 -167.673 245.703C-167.413 243.807 -166.766 241.984 -165.773 240.348C-164.779 238.712 -163.461 237.297 -161.898 236.191L-95.3744 182.207C-92.8583 180.172 -89.7129 179.074 -86.4762 179.1C-83.2396 179.126 -80.1127 180.276 -77.63 182.352L-11.2752 235.998C-9.71247 237.104 -8.39354 238.519 -7.40009 240.155C-6.40663 241.792 -5.7597 243.614 -5.49956 245.511C-5.23943 247.407 -5.37152 249.336 -5.88766 251.18C-6.40381 253.023 -7.29312 254.74 -8.50031 256.226C-9.7075 257.712 -11.2069 258.934 -12.9058 259.817C-14.6047 260.7 -16.4669 261.225 -18.3769 261.359C-20.287 261.493 -22.2042 261.234 -24.01 260.598C-25.8158 259.961 -27.4718 258.961 -28.8751 257.659L-86.6587 210.992L-144.442 257.659L-144.298 257.851ZM-144.298 168.802C-145.701 170.104 -147.357 171.104 -149.163 171.741C-150.969 172.377 -152.886 172.636 -154.796 172.502C-156.706 172.368 -158.568 171.843 -160.267 170.96C-161.966 170.077 -163.465 168.855 -164.673 167.369C-165.88 165.884 -166.769 164.166 -167.285 162.323C-167.801 160.479 -167.933 158.55 -167.673 156.654C-167.413 154.757 -166.766 152.935 -165.773 151.298C-164.779 149.662 -163.461 148.247 -161.898 147.141L-95.3744 93.1579C-92.8611 91.1192 -89.7173 90.0165 -86.4806 90.0385C-83.244 90.0604 -80.1155 91.2056 -77.63 93.2782L-11.2752 146.949C-9.71247 148.055 -8.39354 149.47 -7.40009 151.106C-6.40663 152.742 -5.7597 154.565 -5.49956 156.461C-5.23943 158.357 -5.37152 160.287 -5.88766 162.13C-6.40381 163.973 -7.29312 165.691 -8.50031 167.177C-9.7075 168.662 -11.2069 169.885 -12.9058 170.767C-14.6047 171.65 -16.4669 172.175 -18.3769 172.31C-20.287 172.444 -22.2042 172.185 -24.01 171.548C-25.8158 170.912 -27.4718 169.911 -28.8751 168.609L-86.6587 121.918L-144.442 168.609L-144.298 168.802ZM-144.298 79.7523C-145.701 81.0545 -147.357 82.0548 -149.163 82.6913C-150.969 83.3278 -152.886 83.5869 -154.796 83.4526C-156.706 83.3183 -158.568 82.7935 -160.267 81.9106C-161.966 81.0277 -163.465 79.8055 -164.673 78.3198C-165.88 76.8341 -166.769 75.1164 -167.285 73.2732C-167.801 71.43 -167.933 69.5005 -167.673 67.6042C-167.413 65.7079 -166.766 63.8852 -165.773 62.2489C-164.779 60.6127 -163.461 59.1977 -161.898 58.0916L-95.3744 4.10842C-92.8572 2.07833 -89.7149 0.98118 -86.4806 1.00311C-83.2464 1.02505 -80.1195 2.16469 -77.63 4.22873L-11.2752 57.8991C-8.67326 60.3135 -7.08694 63.6264 -6.83785 67.1664C-6.58876 70.7065 -7.69545 74.2088 -9.93367 76.9634C-12.1719 79.7181 -15.3742 81.5189 -18.8914 82.0011C-22.4086 82.4832 -25.9777 81.6105 -28.8751 79.5598L-86.6587 32.893L-144.442 79.5598L-144.298 79.7523ZM79.2767 881.197C76.3774 883.213 72.8229 884.058 69.3264 883.562C65.83 883.067 62.6505 881.268 60.4259 878.526C58.2013 875.785 57.0964 872.303 57.3329 868.781C57.5693 865.259 59.1296 861.957 61.7007 859.537L128.2 805.746C130.719 803.71 133.866 802.609 137.106 802.631C140.345 802.653 143.477 803.796 145.968 805.866L212.251 859.465C214.853 861.879 216.439 865.192 216.689 868.732C216.938 872.272 215.831 875.774 213.593 878.529C211.354 881.284 208.152 883.084 204.635 883.567C201.118 884.049 197.549 883.176 194.651 881.125L136.868 834.434L79.084 881.125L79.2767 881.197ZM79.2767 792.148C76.3774 794.163 72.8229 795.008 69.3264 794.513C65.83 794.017 62.6505 792.218 60.4259 789.477C58.2013 786.735 57.0964 783.254 57.3329 779.732C57.5693 776.21 59.1296 772.907 61.7007 770.487L128.2 716.504C130.722 714.471 133.871 713.375 137.11 713.401C140.35 713.427 143.48 714.575 145.968 716.649L212.251 770.391C213.814 771.497 215.133 772.912 216.126 774.548C217.12 776.185 217.767 778.007 218.027 779.904C218.287 781.8 218.155 783.729 217.639 785.573C217.122 787.416 216.233 789.134 215.026 790.619C213.819 792.105 212.319 793.327 210.62 794.21C208.922 795.093 207.059 795.618 205.149 795.752C203.239 795.886 201.322 795.627 199.516 794.991C197.71 794.354 196.055 793.354 194.651 792.052L136.868 745.385L79.084 792.052L79.2767 792.148ZM79.2767 703.099C76.3774 705.114 72.8229 705.959 69.3264 705.463C65.83 704.968 62.6505 703.169 60.4259 700.427C58.2013 697.686 57.0964 694.204 57.3329 690.682C57.5693 687.16 59.1296 683.858 61.7007 681.438L128.2 627.455C130.719 625.418 133.866 624.318 137.106 624.34C140.345 624.362 143.477 625.505 145.968 627.575L212.251 681.342C213.814 682.448 215.133 683.863 216.126 685.499C217.12 687.135 217.767 688.958 218.027 690.854C218.287 692.75 218.155 694.68 217.639 696.523C217.122 698.366 216.233 700.084 215.026 701.57C213.819 703.056 212.319 704.278 210.62 705.161C208.922 706.043 207.059 706.568 205.149 706.703C203.239 706.837 201.322 706.578 199.516 705.941C197.71 705.305 196.055 704.305 194.651 703.002L136.868 656.311L79.084 703.002L79.2767 703.099ZM79.2767 614.049C76.3774 616.065 72.8229 616.909 69.3264 616.414C65.83 615.918 62.6505 614.119 60.4259 611.378C58.2013 608.636 57.0964 605.155 57.3329 601.633C57.5693 598.111 59.1296 594.808 61.7007 592.388L128.2 538.405C130.722 536.372 133.871 535.276 137.11 535.302C140.35 535.328 143.48 536.476 145.968 538.55L212.251 592.268C213.814 593.374 215.133 594.789 216.126 596.425C217.12 598.062 217.767 599.884 218.027 601.781C218.287 603.677 218.155 605.606 217.639 607.45C217.122 609.293 216.233 611.011 215.026 612.496C213.819 613.982 212.319 615.204 210.62 616.087C208.922 616.97 207.059 617.495 205.149 617.629C203.239 617.763 201.322 617.504 199.516 616.868C197.71 616.231 196.055 615.231 194.651 613.929L136.868 567.262L79.084 613.929L79.2767 614.049ZM79.2767 525C76.3774 527.015 72.8229 527.86 69.3264 527.364C65.83 526.869 62.6505 525.07 60.4259 522.328C58.2013 519.587 57.0964 516.106 57.3329 512.583C57.5693 509.061 59.1296 505.759 61.7007 503.339L128.2 449.356C130.719 447.319 133.866 446.219 137.106 446.241C140.345 446.263 143.477 447.406 145.968 449.476L212.251 503.219C213.814 504.325 215.133 505.74 216.126 507.376C217.12 509.012 217.767 510.835 218.027 512.731C218.287 514.628 218.155 516.557 217.639 518.4C217.122 520.243 216.233 521.961 215.026 523.447C213.819 524.933 212.319 526.155 210.62 527.038C208.922 527.92 207.059 528.445 205.149 528.58C203.239 528.714 201.322 528.455 199.516 527.818C197.71 527.182 196.055 526.182 194.651 524.879L136.868 478.188L79.084 524.879L79.2767 525ZM79.2767 435.95C76.3774 437.966 72.8229 438.81 69.3264 438.315C65.83 437.819 62.6505 436.02 60.4259 433.279C58.2013 430.537 57.0964 427.056 57.3329 423.534C57.5693 420.012 59.1296 416.709 61.7007 414.29L128.2 360.306C130.722 358.273 133.871 357.177 137.11 357.203C140.35 357.229 143.48 358.377 145.968 360.451L212.251 414.145C213.814 415.251 215.133 416.666 216.126 418.302C217.12 419.939 217.767 421.761 218.027 423.658C218.287 425.554 218.155 427.483 217.639 429.327C217.122 431.17 216.233 432.888 215.026 434.373C213.819 435.859 212.319 437.081 210.62 437.964C208.922 438.847 207.059 439.372 205.149 439.506C203.239 439.64 201.322 439.381 199.516 438.745C197.71 438.108 196.055 437.108 194.651 435.806L136.868 389.139L79.084 435.806L79.2767 435.95ZM79.2767 346.901C76.3774 348.916 72.8229 349.761 69.3264 349.266C65.83 348.77 62.6505 346.971 60.4259 344.229C58.2013 341.488 57.0964 338.007 57.3329 334.484C57.5693 330.962 59.1296 327.66 61.7007 325.24L128.2 271.257C130.719 269.221 133.866 268.12 137.106 268.142C140.345 268.164 143.477 269.307 145.968 271.377L212.251 325.096C213.814 326.202 215.133 327.617 216.126 329.253C217.12 330.889 217.767 332.712 218.027 334.608C218.287 336.505 218.155 338.434 217.639 340.277C217.122 342.12 216.233 343.838 215.026 345.324C213.819 346.81 212.319 348.032 210.62 348.915C208.922 349.797 207.059 350.322 205.149 350.457C203.239 350.591 201.322 350.332 199.516 349.695C197.71 349.059 196.055 348.058 194.651 346.756L136.868 300.066L79.084 346.756L79.2767 346.901ZM79.2767 257.851C76.3774 259.867 72.8229 260.712 69.3264 260.216C65.83 259.721 62.6505 257.921 60.4259 255.18C58.2013 252.438 57.0964 248.957 57.3329 245.435C57.5693 241.913 59.1296 238.61 61.7007 236.191L128.2 182.207C130.722 180.174 133.871 179.078 137.11 179.104C140.35 179.131 143.48 180.278 145.968 182.352L212.251 236.022C213.814 237.128 215.133 238.543 216.126 240.179C217.12 241.816 217.767 243.638 218.027 245.535C218.287 247.431 218.155 249.361 217.639 251.204C217.122 253.047 216.233 254.765 215.026 256.25C213.819 257.736 212.319 258.958 210.62 259.841C208.922 260.724 207.059 261.249 205.149 261.383C203.239 261.517 201.322 261.258 199.516 260.622C197.71 259.985 196.055 258.985 194.651 257.683L136.868 211.016L79.084 257.683L79.2767 257.851ZM79.2767 168.802C76.3774 170.817 72.8229 171.662 69.3264 171.167C65.83 170.671 62.6505 168.872 60.4259 166.13C58.2013 163.389 57.0964 159.908 57.3329 156.385C57.5693 152.863 59.1296 149.561 61.7007 147.141L128.2 93.1579C130.719 91.1216 133.866 90.0208 137.106 90.0427C140.345 90.0647 143.477 91.208 145.968 93.2782L212.251 146.973C213.814 148.079 215.133 149.494 216.126 151.13C217.12 152.766 217.767 154.589 218.027 156.485C218.287 158.382 218.155 160.311 217.639 162.154C217.122 163.997 216.233 165.715 215.026 167.201C213.819 168.686 212.319 169.909 210.62 170.792C208.922 171.674 207.059 172.199 205.149 172.334C203.239 172.468 201.322 172.209 199.516 171.572C197.71 170.936 196.055 169.935 194.651 168.633L136.868 121.943L79.084 168.633L79.2767 168.802ZM79.2767 79.7523C76.3774 81.7678 72.8229 82.6126 69.3264 82.1171C65.83 81.6216 62.6505 79.8225 60.4259 77.0809C58.2013 74.3394 57.0964 70.8581 57.3329 67.336C57.5693 63.8139 59.1296 60.5115 61.7007 58.0916L128.2 4.10842C130.721 2.07646 133.867 0.97839 137.106 1.00032C140.344 1.02225 143.475 2.16281 145.968 4.22873L212.251 57.8991C214.853 60.3135 216.439 63.6264 216.689 67.1664C216.938 70.7065 215.831 74.2088 213.593 76.9634C211.354 79.7181 208.152 81.5189 204.635 82.0011C201.118 82.4832 197.549 81.6105 194.651 79.5598L136.868 32.893L79.084 79.5598L79.2767 79.7523ZM302.875 881.197C301.474 882.516 299.817 883.531 298.005 884.18C296.194 884.829 294.269 885.097 292.349 884.969C290.43 884.84 288.557 884.317 286.849 883.432C285.141 882.547 283.634 881.319 282.422 879.825C281.21 878.332 280.319 876.604 279.806 874.751C279.292 872.898 279.166 870.958 279.436 869.054C279.706 867.15 280.366 865.322 281.375 863.684C282.384 862.047 283.72 860.635 285.299 859.537L351.895 805.674C354.408 803.635 357.552 802.533 360.789 802.555C364.025 802.577 367.154 803.722 369.639 805.794L436.018 859.465C438.62 861.879 440.206 865.192 440.455 868.732C440.705 872.272 439.598 875.774 437.36 878.529C435.122 881.284 431.919 883.084 428.402 883.567C424.885 884.049 421.316 883.176 418.418 881.125L360.635 834.434L302.851 881.125L302.875 881.197ZM302.875 792.148C301.474 793.466 299.817 794.482 298.005 795.131C296.194 795.779 294.269 796.048 292.349 795.919C290.43 795.79 288.557 795.267 286.849 794.382C285.141 793.497 283.634 792.269 282.422 790.776C281.21 789.282 280.319 787.555 279.806 785.701C279.292 783.848 279.166 781.909 279.436 780.005C279.706 778.1 280.366 776.273 281.375 774.635C282.384 772.997 283.72 771.585 285.299 770.487L351.895 716.504C354.411 714.469 357.556 713.37 360.793 713.397C364.03 713.423 367.157 714.572 369.639 716.649L436.018 770.295C437.581 771.401 438.9 772.816 439.893 774.452C440.887 776.088 441.534 777.911 441.794 779.807C442.054 781.704 441.922 783.633 441.406 785.476C440.889 787.32 440 789.037 438.793 790.523C437.586 792.009 436.086 793.231 434.388 794.114C432.689 794.997 430.827 795.521 428.917 795.656C427.006 795.79 425.089 795.531 423.283 794.895C421.477 794.258 419.822 793.258 418.418 791.955L360.635 745.289L302.851 791.955L302.875 792.148ZM302.875 703.099C301.474 704.417 299.817 705.432 298.005 706.081C296.194 706.73 294.269 706.998 292.349 706.87C290.43 706.741 288.557 706.218 286.849 705.333C285.141 704.448 283.634 703.22 282.422 701.726C281.21 700.233 280.319 698.505 279.806 696.652C279.292 694.799 279.166 692.859 279.436 690.955C279.706 689.051 280.366 687.223 281.375 685.585C282.384 683.948 283.72 682.536 285.299 681.438L351.895 627.455C354.408 625.416 357.552 624.313 360.789 624.335C364.025 624.357 367.154 625.502 369.639 627.575L436.018 681.245C437.581 682.351 438.9 683.766 439.893 685.403C440.887 687.039 441.534 688.862 441.794 690.758C442.054 692.654 441.922 694.584 441.406 696.427C440.889 698.27 440 699.988 438.793 701.473C437.586 702.959 436.086 704.181 434.388 705.064C432.689 705.947 430.827 706.472 428.917 706.606C427.006 706.741 425.089 706.482 423.283 705.845C421.477 705.209 419.822 704.208 418.418 702.906L360.635 656.215L302.851 702.906L302.875 703.099ZM302.875 614.049C301.474 615.367 299.817 616.383 298.005 617.032C296.194 617.681 294.269 617.949 292.349 617.82C290.43 617.691 288.557 617.168 286.849 616.283C285.141 615.398 283.634 614.171 282.422 612.677C281.21 611.183 280.319 609.456 279.806 607.603C279.292 605.749 279.166 603.81 279.436 601.906C279.706 600.002 280.366 598.174 281.375 596.536C282.384 594.898 283.72 593.486 285.299 592.388L351.895 538.405C354.411 536.37 357.556 535.271 360.793 535.298C364.03 535.324 367.157 536.474 369.639 538.55L436.018 592.196C437.581 593.302 438.9 594.717 439.893 596.353C440.887 597.989 441.534 599.812 441.794 601.709C442.054 603.605 441.922 605.534 441.406 607.378C440.889 609.221 440 610.938 438.793 612.424C437.586 613.91 436.086 615.132 434.388 616.015C432.689 616.898 430.827 617.423 428.917 617.557C427.006 617.691 425.089 617.432 423.283 616.796C421.477 616.159 419.822 615.159 418.418 613.857L360.635 567.19L302.851 613.857L302.875 614.049ZM302.875 525C301.474 526.318 299.817 527.333 298.005 527.982C296.194 528.631 294.269 528.9 292.349 528.771C290.43 528.642 288.557 528.119 286.849 527.234C285.141 526.349 283.634 525.121 282.422 523.627C281.21 522.134 280.319 520.406 279.806 518.553C279.292 516.7 279.166 514.76 279.436 512.856C279.706 510.952 280.366 509.124 281.375 507.487C282.384 505.849 283.72 504.437 285.299 503.339L351.895 449.356C354.408 447.317 357.552 446.214 360.789 446.236C364.025 446.258 367.154 447.403 369.639 449.476L436.018 503.146C437.581 504.252 438.9 505.667 439.893 507.304C440.887 508.94 441.534 510.763 441.794 512.659C442.054 514.555 441.922 516.485 441.406 518.328C440.889 520.171 440 521.889 438.793 523.375C437.586 524.86 436.086 526.083 434.388 526.965C432.689 527.848 430.827 528.373 428.917 528.507C427.006 528.642 425.089 528.383 423.283 527.746C421.477 527.11 419.822 526.109 418.418 524.807L360.635 478.116L302.851 524.807L302.875 525ZM302.875 435.95C301.474 437.269 299.817 438.284 298.005 438.933C296.194 439.582 294.269 439.85 292.349 439.721C290.43 439.593 288.557 439.069 286.849 438.184C285.141 437.299 283.634 436.072 282.422 434.578C281.21 433.084 280.319 431.357 279.806 429.504C279.292 427.65 279.166 425.711 279.436 423.807C279.706 421.903 280.366 420.075 281.375 418.437C282.384 416.8 283.72 415.388 285.299 414.29L351.895 360.306C354.411 358.271 357.556 357.173 360.793 357.199C364.03 357.225 367.157 358.375 369.639 360.451L436.018 414.097C437.581 415.203 438.9 416.618 439.893 418.254C440.887 419.89 441.534 421.713 441.794 423.61C442.054 425.506 441.922 427.435 441.406 429.279C440.889 431.122 440 432.839 438.793 434.325C437.586 435.811 436.086 437.033 434.388 437.916C432.689 438.799 430.827 439.324 428.917 439.458C427.006 439.592 425.089 439.333 423.283 438.697C421.477 438.06 419.822 437.06 418.418 435.758L360.635 389.091L302.851 435.758L302.875 435.95ZM302.875 346.901C301.474 348.219 299.817 349.234 298.005 349.883C296.194 350.532 294.269 350.801 292.349 350.672C290.43 350.543 288.557 350.02 286.849 349.135C285.141 348.25 283.634 347.022 282.422 345.529C281.21 344.035 280.319 342.308 279.806 340.454C279.292 338.601 279.166 336.661 279.436 334.757C279.706 332.853 280.366 331.025 281.375 329.388C282.384 327.75 283.72 326.338 285.299 325.24L351.895 271.257C354.408 269.218 357.552 268.115 360.789 268.137C364.025 268.159 367.154 269.305 369.639 271.377L436.018 325.048C437.581 326.154 438.9 327.568 439.893 329.205C440.887 330.841 441.534 332.664 441.794 334.56C442.054 336.456 441.922 338.386 441.406 340.229C440.889 342.072 440 343.79 438.793 345.276C437.586 346.761 436.086 347.984 434.388 348.866C432.689 349.749 430.827 350.274 428.917 350.408C427.006 350.543 425.089 350.284 423.283 349.647C421.477 349.011 419.822 348.01 418.418 346.708L360.635 300.017L302.851 346.708L302.875 346.901ZM302.875 257.851C301.474 259.17 299.817 260.185 298.005 260.834C296.194 261.483 294.269 261.751 292.349 261.622C290.43 261.494 288.557 260.97 286.849 260.085C285.141 259.2 283.634 257.973 282.422 256.479C281.21 254.986 280.319 253.258 279.806 251.405C279.292 249.551 279.166 247.612 279.436 245.708C279.706 243.804 280.366 241.976 281.375 240.338C282.384 238.701 283.72 237.289 285.299 236.191L351.895 182.207C354.411 180.172 357.556 179.074 360.793 179.1C364.03 179.126 367.157 180.276 369.639 182.352L436.018 235.998C437.581 237.104 438.9 238.519 439.893 240.155C440.887 241.792 441.534 243.614 441.794 245.511C442.054 247.407 441.922 249.336 441.406 251.18C440.889 253.023 440 254.74 438.793 256.226C437.586 257.712 436.086 258.934 434.388 259.817C432.689 260.7 430.827 261.225 428.917 261.359C427.006 261.493 425.089 261.234 423.283 260.598C421.477 259.961 419.822 258.961 418.418 257.659L360.635 210.992L302.851 257.659L302.875 257.851ZM302.875 168.802C301.474 170.12 299.817 171.135 298.005 171.784C296.194 172.433 294.269 172.702 292.349 172.573C290.43 172.444 288.557 171.921 286.849 171.036C285.141 170.151 283.634 168.923 282.422 167.43C281.21 165.936 280.319 164.209 279.806 162.355C279.292 160.502 279.166 158.563 279.436 156.658C279.706 154.754 280.366 152.926 281.375 151.289C282.384 149.651 283.72 148.239 285.299 147.141L351.895 93.1579C354.408 91.1192 357.552 90.0165 360.789 90.0385C364.025 90.0604 367.154 91.2056 369.639 93.2782L436.018 146.949C437.581 148.055 438.9 149.47 439.893 151.106C440.887 152.742 441.534 154.565 441.794 156.461C442.054 158.357 441.922 160.287 441.406 162.13C440.889 163.973 440 165.691 438.793 167.177C437.586 168.662 436.086 169.885 434.388 170.767C432.689 171.65 430.827 172.175 428.917 172.31C427.006 172.444 425.089 172.185 423.283 171.548C421.477 170.912 419.822 169.911 418.418 168.609L360.635 121.918L302.851 168.609L302.875 168.802ZM302.875 79.7523C301.474 81.0707 299.817 82.086 298.005 82.7349C296.194 83.3838 294.269 83.6522 292.349 83.5234C290.43 83.3946 288.557 82.8714 286.849 81.9865C285.141 81.1015 283.634 79.8739 282.422 78.3802C281.21 76.8866 280.319 75.1591 279.806 73.3058C279.292 71.4524 279.166 69.5131 279.436 67.6089C279.706 65.7048 280.366 63.8768 281.375 62.2392C282.384 60.6017 283.72 59.1897 285.299 58.0916L351.895 4.10842C354.412 2.07833 357.554 0.98118 360.789 1.00311C364.023 1.02505 367.15 2.16469 369.639 4.22873L436.018 57.8991C438.62 60.3135 440.206 63.6264 440.455 67.1664C440.705 70.7065 439.598 74.2088 437.36 76.9634C435.122 79.7181 431.919 81.5189 428.402 82.0011C424.885 82.4832 421.316 81.6105 418.418 79.5598L360.635 32.893L302.851 79.5598L302.875 79.7523ZM750.072 881.197C748.669 882.5 747.013 883.5 745.207 884.136C743.401 884.773 741.484 885.032 739.574 884.898C737.664 884.763 735.802 884.239 734.103 883.356C732.404 882.473 730.905 881.251 729.697 879.765C728.49 878.279 727.601 876.562 727.085 874.718C726.569 872.875 726.437 870.946 726.697 869.049C726.957 867.153 727.604 865.33 728.597 863.694C729.591 862.058 730.909 860.643 732.472 859.537L798.996 805.746C801.509 803.707 804.653 802.605 807.889 802.627C811.126 802.649 814.255 803.794 816.74 805.866L883.095 859.537C885.697 861.951 887.283 865.264 887.532 868.804C887.781 872.344 886.675 875.846 884.436 878.601C882.198 881.356 878.996 883.157 875.479 883.639C871.962 884.121 868.392 883.248 865.495 881.197L807.711 834.507L749.928 881.197H750.072ZM750.072 792.148C747.175 794.199 743.606 795.071 740.089 794.589C736.571 794.107 733.369 792.306 731.131 789.552C728.893 786.797 727.786 783.295 728.035 779.755C728.284 776.215 729.87 772.902 732.472 770.487L798.996 716.504C801.512 714.469 804.657 713.37 807.894 713.397C811.13 713.423 814.257 714.572 816.74 716.649L883.095 770.295C884.658 771.401 885.977 772.816 886.97 774.452C887.964 776.088 888.61 777.911 888.87 779.807C889.131 781.704 888.999 783.633 888.482 785.476C887.966 787.32 887.077 789.037 885.87 790.523C884.663 792.009 883.163 793.231 881.464 794.114C879.766 794.997 877.903 795.521 875.993 795.656C874.083 795.79 872.166 795.531 870.36 794.895C868.554 794.258 866.898 793.258 865.495 791.955L807.711 745.289L749.928 791.955L750.072 792.148ZM750.072 703.099C747.175 705.149 743.606 706.022 740.089 705.54C736.571 705.058 733.369 703.257 731.131 700.502C728.893 697.748 727.786 694.245 728.035 690.705C728.284 687.165 729.87 683.852 732.472 681.438L798.996 627.455C801.509 625.416 804.653 624.313 807.889 624.335C811.126 624.357 814.255 625.502 816.74 627.575L883.095 681.245C884.658 682.351 885.977 683.766 886.97 685.403C887.964 687.039 888.61 688.862 888.87 690.758C889.131 692.654 888.999 694.584 888.482 696.427C887.966 698.27 887.077 699.988 885.87 701.473C884.663 702.959 883.163 704.181 881.464 705.064C879.766 705.947 877.903 706.472 875.993 706.606C874.083 706.741 872.166 706.482 870.36 705.845C868.554 705.209 866.898 704.208 865.495 702.906L807.711 656.215L749.928 702.906L750.072 703.099ZM750.072 614.049C748.669 615.351 747.013 616.352 745.207 616.988C743.401 617.625 741.484 617.884 739.574 617.749C737.664 617.615 735.802 617.09 734.103 616.207C732.404 615.324 730.905 614.102 729.697 612.617C728.49 611.131 727.601 609.413 727.085 607.57C726.569 605.727 726.437 603.797 726.697 601.901C726.957 600.005 727.604 598.182 728.597 596.546C729.591 594.909 730.909 593.494 732.472 592.388L798.996 538.405C801.512 536.37 804.657 535.271 807.894 535.298C811.13 535.324 814.257 536.474 816.74 538.55L883.095 592.196C884.658 593.302 885.977 594.717 886.97 596.353C887.964 597.989 888.61 599.812 888.87 601.709C889.131 603.605 888.999 605.534 888.482 607.378C887.966 609.221 887.077 610.938 885.87 612.424C884.663 613.91 883.163 615.132 881.464 616.015C879.766 616.898 877.903 617.423 875.993 617.557C874.083 617.691 872.166 617.432 870.36 616.796C868.554 616.159 866.898 615.159 865.495 613.857L807.711 567.19L749.928 613.857L750.072 614.049ZM750.072 525C748.669 526.302 747.013 527.302 745.207 527.939C743.401 528.575 741.484 528.834 739.574 528.7C737.664 528.566 735.802 528.041 734.103 527.158C732.404 526.275 730.905 525.053 729.697 523.567C728.49 522.081 727.601 520.364 727.085 518.521C726.569 516.677 726.437 514.748 726.697 512.852C726.957 510.955 727.604 509.133 728.597 507.496C729.591 505.86 730.909 504.445 732.472 503.339L798.996 449.356C801.509 447.317 804.653 446.214 807.889 446.236C811.126 446.258 814.255 447.403 816.74 449.476L883.095 503.146C884.658 504.252 885.977 505.667 886.97 507.304C887.964 508.94 888.61 510.763 888.87 512.659C889.131 514.555 888.999 516.485 888.482 518.328C887.966 520.171 887.077 521.889 885.87 523.375C884.663 524.86 883.163 526.083 881.464 526.965C879.766 527.848 877.903 528.373 875.993 528.507C874.083 528.642 872.166 528.383 870.36 527.746C868.554 527.11 866.898 526.109 865.495 524.807L807.711 478.116L749.928 524.807L750.072 525ZM750.072 435.95C748.669 437.252 747.013 438.253 745.207 438.889C743.401 439.526 741.484 439.785 739.574 439.65C737.664 439.516 735.802 438.991 734.103 438.108C732.404 437.225 730.905 436.003 729.697 434.518C728.49 433.032 727.601 431.314 727.085 429.471C726.569 427.628 726.437 425.698 726.697 423.802C726.957 421.906 727.604 420.083 728.597 418.447C729.591 416.811 730.909 415.396 732.472 414.29L798.996 360.306C801.512 358.271 804.657 357.173 807.894 357.199C811.13 357.225 814.257 358.375 816.74 360.451L883.095 414.097C884.658 415.203 885.977 416.618 886.97 418.254C887.964 419.89 888.61 421.713 888.87 423.61C889.131 425.506 888.999 427.435 888.482 429.279C887.966 431.122 887.077 432.839 885.87 434.325C884.663 435.811 883.163 437.033 881.464 437.916C879.766 438.799 877.903 439.324 875.993 439.458C874.083 439.592 872.166 439.333 870.36 438.697C868.554 438.06 866.898 437.06 865.495 435.758L807.711 389.091L749.928 435.758L750.072 435.95ZM750.072 346.901C747.175 348.951 743.606 349.824 740.089 349.342C736.571 348.86 733.369 347.059 731.131 344.304C728.893 341.55 727.786 338.047 728.035 334.507C728.284 330.967 729.87 327.654 732.472 325.24L798.996 271.257C801.509 269.218 804.653 268.115 807.889 268.137C811.126 268.159 814.255 269.305 816.74 271.377L883.095 325.048C884.658 326.154 885.977 327.568 886.97 329.205C887.964 330.841 888.61 332.664 888.87 334.56C889.131 336.456 888.999 338.386 888.482 340.229C887.966 342.072 887.077 343.79 885.87 345.276C884.663 346.761 883.163 347.984 881.464 348.866C879.766 349.749 877.903 350.274 875.993 350.408C874.083 350.543 872.166 350.284 870.36 349.647C868.554 349.011 866.898 348.01 865.495 346.708L807.711 300.017L749.928 346.708L750.072 346.901ZM750.072 257.851C748.669 259.153 747.013 260.154 745.207 260.79C743.401 261.427 741.484 261.686 739.574 261.552C737.664 261.417 735.802 260.892 734.103 260.01C732.404 259.127 730.905 257.904 729.697 256.419C728.49 254.933 727.601 253.215 727.085 251.372C726.569 249.529 726.437 247.599 726.697 245.703C726.957 243.807 727.604 241.984 728.597 240.348C729.591 238.712 730.909 237.297 732.472 236.191L798.996 182.207C801.512 180.172 804.657 179.074 807.894 179.1C811.13 179.126 814.257 180.276 816.74 182.352L883.095 235.998C884.658 237.104 885.977 238.519 886.97 240.155C887.964 241.792 888.61 243.614 888.87 245.511C889.131 247.407 888.999 249.336 888.482 251.18C887.966 253.023 887.077 254.74 885.87 256.226C884.663 257.712 883.163 258.934 881.464 259.817C879.766 260.7 877.903 261.225 875.993 261.359C874.083 261.493 872.166 261.234 870.36 260.598C868.554 259.961 866.898 258.961 865.495 257.659L807.711 210.992L749.928 257.659L750.072 257.851ZM750.072 168.802C748.669 170.104 747.013 171.104 745.207 171.741C743.401 172.377 741.484 172.636 739.574 172.502C737.664 172.368 735.802 171.843 734.103 170.96C732.404 170.077 730.905 168.855 729.697 167.369C728.49 165.884 727.601 164.166 727.085 162.323C726.569 160.479 726.437 158.55 726.697 156.654C726.957 154.757 727.604 152.935 728.597 151.298C729.591 149.662 730.909 148.247 732.472 147.141L798.996 93.1579C801.509 91.1192 804.653 90.0165 807.889 90.0385C811.126 90.0604 814.255 91.2056 816.74 93.2782L883.095 146.949C884.658 148.055 885.977 149.47 886.97 151.106C887.964 152.742 888.61 154.565 888.87 156.461C889.131 158.357 888.999 160.287 888.482 162.13C887.966 163.973 887.077 165.691 885.87 167.177C884.663 168.662 883.163 169.885 881.464 170.767C879.766 171.65 877.903 172.175 875.993 172.31C874.083 172.444 872.166 172.185 870.36 171.548C868.554 170.912 866.898 169.911 865.495 168.609L807.711 121.918L749.928 168.609L750.072 168.802ZM750.072 79.7523C748.669 81.0545 747.013 82.0548 745.207 82.6913C743.401 83.3278 741.484 83.5869 739.574 83.4526C737.664 83.3183 735.802 82.7935 734.103 81.9106C732.404 81.0277 730.905 79.8055 729.697 78.3198C728.49 76.8341 727.601 75.1164 727.085 73.2732C726.569 71.43 726.437 69.5005 726.697 67.6042C726.957 65.7079 727.604 63.8852 728.597 62.2489C729.591 60.6127 730.909 59.1977 732.472 58.0916L798.996 4.10842C801.513 2.07833 804.655 0.98118 807.889 1.00311C811.124 1.02505 814.251 2.16469 816.74 4.22873L883.095 57.8991C884.658 59.0052 885.977 60.4201 886.97 62.0564C887.964 63.6926 888.61 65.5154 888.87 67.4117C889.131 69.308 888.999 71.2375 888.482 73.0807C887.966 74.9239 887.077 76.6415 885.87 78.1272C884.663 79.6129 883.163 80.8351 881.464 81.718C879.766 82.6009 877.903 83.1257 875.993 83.26C874.083 83.3943 872.166 83.1352 870.36 82.4988C868.554 81.8623 866.898 80.862 865.495 79.5598L807.711 32.893L749.928 79.5598L750.072 79.7523ZM-367.993 881.197C-370.89 883.248 -374.459 884.121 -377.976 883.639C-381.493 883.157 -384.696 881.356 -386.934 878.601C-389.172 875.846 -390.279 872.344 -390.03 868.804C-389.781 865.264 -388.194 861.951 -385.593 859.537L-319.069 805.746C-316.556 803.707 -313.412 802.605 -310.175 802.627C-306.939 802.649 -303.81 803.794 -301.325 805.866L-234.97 859.537C-233.407 860.643 -232.088 862.058 -231.095 863.694C-230.101 865.33 -229.455 867.153 -229.194 869.049C-228.934 870.946 -229.066 872.875 -229.583 874.718C-230.099 876.562 -230.988 878.279 -232.195 879.765C-233.402 881.251 -234.902 882.473 -236.601 883.356C-238.3 884.239 -240.162 884.763 -242.072 884.898C-243.982 885.032 -245.899 884.773 -247.705 884.136C-249.511 883.5 -251.167 882.5 -252.57 881.197L-310.209 834.434L-367.993 881.125V881.197ZM-367.993 792.148C-370.89 794.199 -374.459 795.071 -377.976 794.589C-381.493 794.107 -384.696 792.306 -386.934 789.552C-389.172 786.797 -390.279 783.295 -390.03 779.755C-389.781 776.215 -388.194 772.902 -385.593 770.487L-318.973 716.504C-316.457 714.469 -313.312 713.37 -310.075 713.397C-306.838 713.423 -303.711 714.572 -301.229 716.649L-234.874 770.295C-233.311 771.401 -231.992 772.816 -230.999 774.452C-230.005 776.088 -229.358 777.911 -229.098 779.807C-228.838 781.704 -228.97 783.633 -229.486 785.476C-230.002 787.32 -230.892 789.037 -232.099 790.523C-233.306 792.009 -234.805 793.231 -236.504 794.114C-238.203 794.997 -240.065 795.521 -241.975 795.656C-243.885 795.79 -245.803 795.531 -247.609 794.895C-249.414 794.258 -251.07 793.258 -252.474 791.955L-310.209 745.385L-367.993 792.052V792.148ZM-367.993 703.099C-370.89 705.149 -374.459 706.022 -377.976 705.54C-381.493 705.058 -384.696 703.257 -386.934 700.502C-389.172 697.748 -390.279 694.245 -390.03 690.705C-389.781 687.165 -388.194 683.852 -385.593 681.438L-318.973 627.455C-316.46 625.416 -313.316 624.313 -310.079 624.335C-306.842 624.357 -303.714 625.502 -301.229 627.575L-234.874 681.245C-233.311 682.351 -231.992 683.766 -230.999 685.403C-230.005 687.039 -229.358 688.862 -229.098 690.758C-228.838 692.654 -228.97 694.584 -229.486 696.427C-230.002 698.27 -230.892 699.988 -232.099 701.473C-233.306 702.959 -234.805 704.181 -236.504 705.064C-238.203 705.947 -240.065 706.472 -241.975 706.606C-243.885 706.741 -245.803 706.482 -247.609 705.845C-249.414 705.209 -251.07 704.208 -252.474 702.906L-310.209 656.336L-367.993 703.026V703.099ZM-367.993 614.049C-370.89 616.1 -374.459 616.973 -377.976 616.49C-381.493 616.008 -384.696 614.207 -386.934 611.453C-389.172 608.698 -390.279 605.196 -390.03 601.656C-389.781 598.116 -388.194 594.803 -385.593 592.388L-318.973 538.405C-316.457 536.37 -313.312 535.271 -310.075 535.298C-306.838 535.324 -303.711 536.474 -301.229 538.55L-234.874 592.196C-233.311 593.302 -231.992 594.717 -230.999 596.353C-230.005 597.989 -229.358 599.812 -229.098 601.709C-228.838 603.605 -228.97 605.534 -229.486 607.378C-230.002 609.221 -230.892 610.938 -232.099 612.424C-233.306 613.91 -234.805 615.132 -236.504 616.015C-238.203 616.898 -240.065 617.423 -241.975 617.557C-243.885 617.691 -245.803 617.432 -247.609 616.796C-249.414 616.159 -251.07 615.159 -252.474 613.857L-310.209 567.286L-367.993 613.953V614.049ZM-367.993 525C-369.396 526.302 -371.052 527.302 -372.858 527.939C-374.663 528.575 -376.581 528.834 -378.491 528.7C-380.401 528.566 -382.263 528.041 -383.962 527.158C-385.661 526.275 -387.16 525.053 -388.367 523.567C-389.575 522.081 -390.464 520.364 -390.98 518.521C-391.496 516.677 -391.628 514.748 -391.368 512.852C-391.108 510.955 -390.461 509.133 -389.468 507.496C-388.474 505.86 -387.155 504.445 -385.593 503.339L-318.973 449.356C-316.46 447.317 -313.316 446.214 -310.079 446.236C-306.842 446.258 -303.714 447.403 -301.229 449.476L-234.874 503.146C-233.311 504.252 -231.992 505.667 -230.999 507.304C-230.005 508.94 -229.358 510.763 -229.098 512.659C-228.838 514.555 -228.97 516.485 -229.486 518.328C-230.002 520.171 -230.892 521.889 -232.099 523.375C-233.306 524.86 -234.805 526.083 -236.504 526.965C-238.203 527.848 -240.065 528.373 -241.975 528.507C-243.885 528.642 -245.803 528.383 -247.609 527.746C-249.414 527.11 -251.07 526.109 -252.474 524.807L-310.209 478.237L-367.993 524.928V525ZM-367.993 435.95C-369.396 437.252 -371.052 438.253 -372.858 438.889C-374.663 439.526 -376.581 439.785 -378.491 439.65C-380.401 439.516 -382.263 438.991 -383.962 438.108C-385.661 437.225 -387.16 436.003 -388.367 434.518C-389.575 433.032 -390.464 431.314 -390.98 429.471C-391.496 427.628 -391.628 425.698 -391.368 423.802C-391.108 421.906 -390.461 420.083 -389.468 418.447C-388.474 416.811 -387.155 415.396 -385.593 414.29L-318.973 360.306C-316.457 358.271 -313.312 357.173 -310.075 357.199C-306.838 357.225 -303.711 358.375 -301.229 360.451L-234.874 414.097C-233.311 415.203 -231.992 416.618 -230.999 418.254C-230.005 419.89 -229.358 421.713 -229.098 423.61C-228.838 425.506 -228.97 427.435 -229.486 429.279C-230.002 431.122 -230.892 432.839 -232.099 434.325C-233.306 435.811 -234.805 437.033 -236.504 437.916C-238.203 438.799 -240.065 439.324 -241.975 439.458C-243.885 439.592 -245.803 439.333 -247.609 438.697C-249.414 438.06 -251.07 437.06 -252.474 435.758L-310.209 389.187L-367.993 435.878V435.95ZM-367.993 346.901C-370.89 348.951 -374.459 349.824 -377.976 349.342C-381.493 348.86 -384.696 347.059 -386.934 344.304C-389.172 341.55 -390.279 338.047 -390.03 334.507C-389.781 330.967 -388.194 327.654 -385.593 325.24L-318.973 271.257C-316.46 269.218 -313.316 268.115 -310.079 268.137C-306.842 268.159 -303.714 269.305 -301.229 271.377L-234.874 325.048C-233.311 326.154 -231.992 327.568 -230.999 329.205C-230.005 330.841 -229.358 332.664 -229.098 334.56C-228.838 336.456 -228.97 338.386 -229.486 340.229C-230.002 342.072 -230.892 343.79 -232.099 345.276C-233.306 346.761 -234.805 347.984 -236.504 348.866C-238.203 349.749 -240.065 350.274 -241.975 350.408C-243.885 350.543 -245.803 350.284 -247.609 349.647C-249.414 349.011 -251.07 348.01 -252.474 346.708L-310.209 300.138L-367.993 346.829V346.901ZM-367.993 257.851C-369.396 259.153 -371.052 260.154 -372.858 260.79C-374.663 261.427 -376.581 261.686 -378.491 261.552C-380.401 261.417 -382.263 260.892 -383.962 260.01C-385.661 259.127 -387.16 257.904 -388.367 256.419C-389.575 254.933 -390.464 253.215 -390.98 251.372C-391.496 249.529 -391.628 247.599 -391.368 245.703C-391.108 243.807 -390.461 241.984 -389.468 240.348C-388.474 238.712 -387.155 237.297 -385.593 236.191L-318.973 182.207C-316.457 180.172 -313.312 179.074 -310.075 179.1C-306.838 179.126 -303.711 180.276 -301.229 182.352L-234.874 235.998C-233.311 237.104 -231.992 238.519 -230.999 240.155C-230.005 241.792 -229.358 243.614 -229.098 245.511C-228.838 247.407 -228.97 249.336 -229.486 251.18C-230.002 253.023 -230.892 254.74 -232.099 256.226C-233.306 257.712 -234.805 258.934 -236.504 259.817C-238.203 260.7 -240.065 261.225 -241.975 261.359C-243.885 261.493 -245.803 261.234 -247.609 260.598C-249.414 259.961 -251.07 258.961 -252.474 257.659L-310.209 211.088L-367.993 257.755V257.851ZM-367.993 168.802C-369.396 170.104 -371.052 171.104 -372.858 171.741C-374.663 172.377 -376.581 172.636 -378.491 172.502C-380.401 172.368 -382.263 171.843 -383.962 170.96C-385.661 170.077 -387.16 168.855 -388.367 167.369C-389.575 165.884 -390.464 164.166 -390.98 162.323C-391.496 160.479 -391.628 158.55 -391.368 156.654C-391.108 154.757 -390.461 152.935 -389.468 151.298C-388.474 149.662 -387.155 148.247 -385.593 147.141L-318.973 93.1579C-316.46 91.1192 -313.316 90.0165 -310.079 90.0385C-306.842 90.0604 -303.714 91.2056 -301.229 93.2782L-234.874 146.949C-232.272 149.363 -230.685 152.676 -230.436 156.216C-230.187 159.756 -231.294 163.258 -233.532 166.013C-235.77 168.768 -238.973 170.568 -242.49 171.051C-246.007 171.533 -249.576 170.66 -252.474 168.609L-310.209 122.039L-367.993 168.73V168.802ZM-367.993 79.7523C-369.396 81.0545 -371.052 82.0548 -372.858 82.6913C-374.663 83.3278 -376.581 83.5869 -378.491 83.4526C-380.401 83.3183 -382.263 82.7935 -383.962 81.9106C-385.661 81.0277 -387.16 79.8055 -388.367 78.3198C-389.575 76.8341 -390.464 75.1164 -390.98 73.2732C-391.496 71.43 -391.628 69.5005 -391.368 67.6042C-391.108 65.7079 -390.461 63.8852 -389.468 62.2489C-388.474 60.6127 -387.155 59.1977 -385.593 58.0916L-318.973 4.10842C-316.456 2.07833 -313.313 0.98118 -310.079 1.00311C-306.845 1.02505 -303.718 2.16469 -301.229 4.22873L-234.874 57.8991C-232.272 60.3135 -230.685 63.6264 -230.436 67.1664C-230.187 70.7065 -231.294 74.2088 -233.532 76.9634C-235.77 79.7181 -238.973 81.5189 -242.49 82.0011C-246.007 82.4832 -249.576 81.6105 -252.474 79.5598L-310.209 32.9893L-367.993 79.6561V79.7523Z" stroke="#C5C5C5" stroke-width="1.42" stroke-miterlimit="22.93"/>
</svg>
